<?xml version="1.0" encoding="UTF-8"?><svg id="_Слой_2" xmlns="http://www.w3.org/2000/svg" width="83" height="25" viewBox="0 0 83 25"><defs><style>.cls-1{fill:#f3971b;}.cls-1,.cls-2{stroke-width:0px;}</style></defs><g id="amazon"><g id="amazon-2"><path class="cls-2" d="M17.66,5.97v8.04c0,.27-.22.49-.49.49h-2.53c-.27,0-.49-.22-.49-.49V.93c0-.27.22-.49.49-.49h2.35c.27,0,.49.22.49.49v1.84s.84-2.63,3.33-2.63c0,0,2.46-.3,3.46,2.44,0,0,.84-2.44,3.38-2.44,0,0,3.78-.23,3.78,3.69l.03,2.16v8.04c0,.27-.22.49-.49.49h-2.53c-.27,0-.49-.22-.49-.49l-.02-8.77c.07-1.99-1.53-1.84-1.53-1.84-2.02.04-1.83,2.57-1.83,2.57v8.04c0,.27-.22.49-.49.49h-2.53c-.27,0-.49-.22-.49-.49V5.46s.15-2.06-1.66-2.06c0,0-1.78-.23-1.72,2.56ZM83,5.94v8.04c0,.27-.22.49-.49.49l-2.64.05c-.27,0-.49-.22-.49-.49V5.46s.15-2.06-1.65-2.06c0,0-1.72-.08-1.72,3.14v7.46c0,.27-.22.49-.49.49h-2.53c-.27,0-.49-.22-.49-.49V.93c0-.27.22-.49.49-.49h2.35c.27,0,.49.22.49.49h0v1.84s.84-2.63,3.33-2.63c0,0,2.67-.4,3.56,2.39,0,0,.29.58.29,3.41h0ZM64.7.09c-3.24,0-5.87,2.73-5.87,7.34,0,4.05,2.03,7.34,5.87,7.34,3.62,0,5.87-3.29,5.87-7.34,0-4.52-2.63-7.34-5.87-7.34ZM66.74,7.59c0,1.73-.22,2.65-.22,2.65-.31,1.83-1.64,1.83-1.83,1.82-.21,0-1.55-.01-1.83-1.82,0,0-.22-.92-.22-2.65v-.29c0-1.73.22-2.65.22-2.65.28-1.81,1.62-1.83,1.83-1.83.2,0,1.52,0,1.83,1.83,0,0,.22.92.22,2.65v.29ZM57.36,2.75V.88c0-.27-.22-.49-.49-.49h-8.38c-.27,0-.49.22-.49.49h0v1.86c0,.27.22.49.49.49h4.37l-5.17,7.51s-.2.3-.2.64v2.29s-.03.78.85.33c0,0,1.58-.95,4.22-.95,0,0,2.61-.03,4.35,1.04,0,0,.72.33.72-.39v-1.99s.07-.53-.62-.85c0,0-2-1.1-4.63-.92l4.98-7.17ZM12.19,12.16l-.79-1.21c-.25-.45-.23-.96-.23-.96v-5.58C11.27-.41,5.93,0,5.93,0,1.19,0,.49,3.71.49,3.71c-.2.74.38.76.38.76l2.32.24s.4.09.54-.38c0,0,.31-1.61,2.01-1.61,1.86,0,1.84,1.6,1.84,1.6v1.34c-3.71.12-5.43,1.15-5.43,1.15C-.14,8.1,0,10.68,0,10.68,0,14.88,4,14.7,4,14.7c2.56,0,4.08-1.88,4.08-1.88.45.79,1.28,1.55,1.28,1.55.42.45.85.07.85.07l1.88-1.61c.41-.31.11-.69.11-.69ZM5.25,12.11c-1.2,0-1.65-1.2-1.45-2.38.2-1.18,1.24-2.1,3.77-2.08v.72c.09,3.13-1.32,3.74-2.32,3.74h0ZM45.87,12.16l-.79-1.21c-.25-.45-.23-.96-.23-.96v-5.58C44.95-.41,39.62,0,39.62,0c-4.74,0-5.45,3.7-5.45,3.7-.2.74.38.76.38.76l2.32.24s.4.09.54-.38c0,0,.31-1.61,2.01-1.61,1.86,0,1.84,1.6,1.84,1.6v1.34c-3.71.12-5.43,1.15-5.43,1.15-2.29,1.3-2.15,3.88-2.15,3.88,0,4.21,4,4.03,4,4.03,2.56,0,4.08-1.88,4.08-1.88.45.79,1.28,1.55,1.28,1.55.42.45.85.07.85.07l1.88-1.61c.41-.31.11-.69.11-.69h0ZM38.94,12.11c-1.2,0-1.65-1.2-1.45-2.38.2-1.18,1.24-2.1,3.77-2.08v.72c.09,3.13-1.32,3.74-2.32,3.74h0Z"/><path class="cls-1" d="M52.26,22.71s-.21.37.05.45c0,0,.29.12.66-.23,0,0,2.68-2.34,2.74-6.6,0,0,.02-.53-.19-.68,0,0-.84-.74-3.85-.52,0,0-2.63.18-4.06,1.45,0,0-.13.11-.13.26,0,0-.03.31.76.18,0,0,2.63-.37,4.19-.18,0,0,.81.1,1.03.37,0,0,.37.31.18,1.32,0,0-.53,2.58-1.37,4.16h0Z"/><path class="cls-1" d="M51.73,18.63s.39.51-.24.95c0,0-6.77,5.42-18.13,5.42,0,0-11.69.58-21.46-8.3,0,0-.34-.3-.13-.58,0,0,.19-.26.68.02,0,0,9.19,5.73,21.25,5.73,0,0,8.38.32,16.99-3.36,0,0,.69-.36,1.04.12h0Z"/></g></g></svg>