<?xml version="1.0" encoding="UTF-8"?><svg id="_Слой_2" xmlns="http://www.w3.org/2000/svg" width="104" height="25" viewBox="0 0 104 25"><defs><style>.cls-1{fill-rule:evenodd;stroke-width:0px;}</style></defs><g id="_Слой_1-2"><path id="apple_music" class="cls-1" d="M43.54,24.68V7.8h-.11l-6.81,16.88h-2.6l-6.82-16.88h-.11v16.88h-3.19V1.75h4.05l7.31,18.28h.13L42.68,1.75h4.07v22.93h-3.21ZM64.41,24.68h-3.24v-2.83h-.08c-.91,2-2.58,3.13-5.1,3.13-3.58,0-5.78-2.37-5.78-6.2V7.96h3.38v10.16c0,2.54,1.19,3.91,3.52,3.91s3.91-1.72,3.91-4.32V7.96h3.38v16.72h0ZM73.67,7.66c3.83,0,6.32,2.16,6.43,5.25h-3.18c-.19-1.62-1.36-2.64-3.26-2.64s-3.05.91-3.05,2.24c0,1.05.75,1.76,2.53,2.18l2.68.62c3.37.79,4.65,2.13,4.65,4.54,0,3.05-2.8,5.15-6.68,5.15-4.12,0-6.59-2.05-6.9-5.23h3.35c.31,1.75,1.49,2.61,3.55,2.61s3.29-.86,3.29-2.22c0-1.08-.61-1.72-2.41-2.13l-2.68-.63c-3.13-.73-4.68-2.26-4.68-4.69,0-2.99,2.57-5.04,6.36-5.04h0ZM82.82,3.54c0-1.1.88-1.97,1.96-1.97s1.94.87,1.94,1.97-.86,1.97-1.94,1.97c-.54,0-1-.2-1.38-.58-.38-.38-.57-.85-.57-1.39h0ZM83.09,7.96h3.38v16.72h-3.38V7.96ZM100.74,13.72c-.34-1.78-1.66-3.2-3.87-3.2-2.61,0-4.34,2.21-4.34,5.8s1.74,5.8,4.37,5.8c2.08,0,3.44-1.16,3.83-3.1h3.26c-.36,3.56-3.16,5.98-7.12,5.98-4.71,0-7.78-3.27-7.78-8.68s3.07-8.66,7.75-8.66c4.24,0,6.82,2.77,7.12,6.06h-3.23ZM13.56,3.99c-.87,1.04-2.26,1.87-3.65,1.75-.18-1.41.51-2.91,1.3-3.83.87-1.07,2.38-1.84,3.62-1.9.15,1.47-.42,2.91-1.27,3.99h0ZM14.81,6.01c.78.06,3.04.3,4.48,2.47-.12.09-2.68,1.59-2.65,4.74.03,3.76,3.25,5.01,3.28,5.05-.03.09-.51,1.77-1.68,3.51-1.02,1.53-2.08,3.03-3.76,3.06-1.63.03-2.17-.98-4.03-.98s-2.47.95-4,1.01c-1.63.06-2.86-1.62-3.88-3.15C.46,18.63-1.13,13.01,1.03,9.22c1.05-1.89,2.98-3.09,5.05-3.12,1.6-.03,3.07,1.07,4.03,1.07s2.68-1.28,4.69-1.16h0Z"/></g></svg>