<?xml version="1.0" encoding="UTF-8"?><svg id="_Слой_2" xmlns="http://www.w3.org/2000/svg" width="131" height="25" xmlns:xlink="http://www.w3.org/1999/xlink" viewBox="0 0 131 25"><defs><style>.cls-1{fill:url(#_Безымянный_градиент_3);}.cls-1,.cls-2,.cls-3,.cls-4,.cls-5,.cls-6,.cls-7,.cls-8,.cls-9,.cls-10,.cls-11{stroke-width:0px;}.cls-1,.cls-2,.cls-3,.cls-5,.cls-6,.cls-7,.cls-8,.cls-9,.cls-10,.cls-11{fill-rule:evenodd;}.cls-2{fill:url(#_Безымянный_градиент_7);}.cls-3{fill:url(#_Безымянный_градиент_7-2);}.cls-5{fill:url(#_Безымянный_градиент_6);}.cls-6{fill:url(#_Безымянный_градиент_2);}.cls-7{fill:url(#_Безымянный_градиент);}.cls-8{fill:url(#_Безымянный_градиент_9);}.cls-9{fill:#40ab5d;}.cls-10{fill:url(#_Безымянный_градиент_8);}.cls-11{fill:url(#_Безымянный_градиент_4);}</style><linearGradient id="_Безымянный_градиент" x1="-354.61" y1="20.27" x2="-354.63" y2="19.54" gradientTransform="translate(1647.17 -76.91) scale(4.58)" gradientUnits="userSpaceOnUse"><stop offset="0" stop-color="#358c7b"/><stop offset=".53" stop-color="#33a65e"/></linearGradient><linearGradient id="_Безымянный_градиент_2" x1="-355.25" y1="21.22" x2="-353.99" y2="20.58" gradientTransform="translate(1647.17 -76.91) scale(4.58)" gradientUnits="userSpaceOnUse"><stop offset="0" stop-color="#222b90"/><stop offset="1" stop-color="#367b99"/></linearGradient><linearGradient id="_Безымянный_градиент_3" x1="-359.68" y1="21.89" x2="-358.46" y2="21.89" gradientTransform="translate(1647.17 -76.91) scale(4.58)" gradientUnits="userSpaceOnUse"><stop offset="0" stop-color="#f90"/><stop offset="1" stop-color="#ff8000"/></linearGradient><linearGradient id="_Безымянный_градиент_4" x1="-358.2" y1="21.89" x2="-356.97" y2="21.89" gradientTransform="translate(1647.17 -76.91) scale(4.58)" gradientUnits="userSpaceOnUse"><stop offset="0" stop-color="#ff8000"/><stop offset="1" stop-color="#cc1953"/></linearGradient><linearGradient id="_Безымянный_градиент_7" x1="-356.72" y1="21.89" x2="-355.49" y2="21.89" gradientTransform="translate(1647.17 -76.91) scale(4.58)" gradientUnits="userSpaceOnUse"><stop offset="0" stop-color="#cc1953"/><stop offset="1" stop-color="#241284"/></linearGradient><linearGradient id="_Безымянный_градиент_6" x1="-355.23" y1="21.89" x2="-354.01" y2="21.89" gradientTransform="translate(1647.17 -76.91) scale(4.58)" gradientUnits="userSpaceOnUse"><stop offset="0" stop-color="#222b90"/><stop offset="1" stop-color="#3559a6"/></linearGradient><linearGradient id="_Безымянный_градиент_7-2" x1="-356.76" y1="21.09" x2="-355.44" y2="20.71" xlink:href="#_Безымянный_градиент_7"/><linearGradient id="_Безымянный_градиент_8" x1="-358.24" y1="20.66" x2="-356.93" y2="21.14" gradientTransform="translate(1647.17 -76.91) scale(4.58)" gradientUnits="userSpaceOnUse"><stop offset="0" stop-color="#fc0"/><stop offset="1" stop-color="#ce1938"/></linearGradient><linearGradient id="_Безымянный_градиент_9" x1="-358.1" y1="19.44" x2="-357.08" y2="20.38" gradientTransform="translate(1647.17 -76.91) scale(4.58)" gradientUnits="userSpaceOnUse"><stop offset="0" stop-color="#ffd100"/><stop offset="1" stop-color="#fd5a22"/></linearGradient></defs><g id="_Слой_1-2"><g id="deezer"><path class="cls-4" d="M30.67,16.59c0,5.24,3.24,8.38,8.04,8.38,2.4,0,4.41-.67,5.54-2.42v2.42h4.39V0h-4.56v10.62c-1.03-1.75-2.95-2.54-5.34-2.54-4.69-.01-8.07,3.19-8.07,8.51ZM44.23,16.59c0,2.99-2.04,4.86-4.49,4.86s-4.49-1.87-4.49-4.86,1.97-4.96,4.49-4.96,4.49,1.94,4.49,4.96ZM62.83,18.53c-.52,1.94-1.85,2.9-3.93,2.9-2.42,0-4.41-1.46-4.47-4.05h11.49c.14-.64.21-1.32.21-2.07,0-4.64-3.17-7.26-7.85-7.26-4.99,0-8.42,3.54-8.42,8.36,0,5.36,3.79,8.58,9.03,8.58,3.96,0,6.64-1.65,7.82-4.93l-3.88-1.53ZM54.43,14.34c.43-1.87,1.99-2.97,3.86-2.97,2.04,0,3.43,1.1,3.43,2.82l-.03.14h-7.27ZM79.74,18.53c-.52,1.94-1.85,2.9-3.93,2.9-2.42,0-4.41-1.46-4.47-4.05h11.49c.14-.64.21-1.32.21-2.07,0-4.64-3.17-7.26-7.85-7.26-4.99,0-8.42,3.54-8.42,8.36,0,5.36,3.79,8.58,9.03,8.58,3.96,0,6.64-1.65,7.82-4.93l-3.88-1.53ZM71.34,14.34c.43-1.87,1.99-2.97,3.86-2.97,2.04,0,3.43,1.1,3.43,2.82l-.03.14h-7.27ZM99.13,25v-4.12h-9.58l9.31-9.05v-3.77h-14.74v3.92h9l-9.29,9.09v3.92h15.29ZM112.45,18.53c-.52,1.94-1.85,2.9-3.93,2.9-2.42,0-4.41-1.46-4.47-4.05h11.49c.14-.64.21-1.32.21-2.07,0-4.64-3.17-7.26-7.85-7.26-4.99,0-8.42,3.54-8.42,8.36,0,5.36,3.79,8.58,9.03,8.58,3.96,0,6.64-1.65,7.82-4.93l-3.88-1.53ZM104.05,14.34c.43-1.87,1.99-2.97,3.86-2.97,2.04,0,3.43,1.1,3.43,2.82l-.03.14h-7.27Z"/><path class="cls-9" d="M20.37,8.07h5.62v3.28h-5.62v-3.28Z"/><path class="cls-7" d="M20.37,12.62h5.62v3.28h-5.62v-3.28Z"/><path class="cls-6" d="M20.37,17.17h5.62v3.28h-5.62v-3.28Z"/><path class="cls-1" d="M0,21.72h5.62v3.28H0v-3.28Z"/><path class="cls-11" d="M6.79,21.72h5.62v3.28h-5.62v-3.28Z"/><path class="cls-2" d="M13.58,21.72h5.62v3.28h-5.62v-3.28Z"/><path class="cls-5" d="M20.37,21.72h5.62v3.28h-5.62v-3.28Z"/><path class="cls-3" d="M13.58,17.17h5.62v3.28h-5.62v-3.28Z"/><path class="cls-10" d="M6.79,17.17h5.62v3.28h-5.62v-3.28Z"/><path class="cls-8" d="M6.79,12.62h5.62v3.28h-5.62v-3.28Z"/><path class="cls-4" d="M126.56,13.91v.48h4.44v-1.29c0-2.9-1.82-5.01-4.87-5.01-1.96,0-3.35.95-4.07,2.54v-2.54h-4.58v16.91h4.58v-10.89c0-1.73.93-2.68,2.36-2.68,1.31.01,2.15,1.24,2.15,2.48h0Z"/></g></g></svg>