<?xml version="1.0" encoding="UTF-8"?><svg id="_Слой_2" xmlns="http://www.w3.org/2000/svg" width="50" height="50" viewBox="0 0 50 50"><defs><style>.cls-1,.cls-2{stroke-width:0px;}.cls-2{fill:#3fc;}</style></defs><g id="dp"><g id="dp-2"><rect class="cls-2" width="50" height="50"/><path id="path12" class="cls-1" d="M12.16,17.8C4.32,26.21-.4,32.96.03,36.77c.31,2.7,2.33,4.09,5.98,4.09,3.34,0,6.83-1.21,6.86-1.21l10.57-3.15V0l-2.21.66-5.03,28.81-2.21.66s-1.04.35-2.08.35c-1.65,0-2.21-.87-2.36-1.59-.49-2.22,2.64-7.58,4.78-11.74l-2.18.66Z"/><path id="path14" class="cls-1" d="M37.81,32.2c7.88-8.45,12.56-15.17,12.17-18.98-.31-2.7-2.33-4.09-5.98-4.09-3.34,0-6.83,1.21-6.86,1.21l-10.57,3.15v36.5l2.21-.66,5.03-28.77,2.21-.66s1.04-.35,2.08-.35c1.65,0,2.21.87,2.36,1.59.52,2.22-2.64,7.55-4.81,11.7l2.18-.66Z"/></g></g></svg>