<?xml version="1.0" encoding="UTF-8"?><svg id="_Слой_2" xmlns="http://www.w3.org/2000/svg" width="107" height="25" xmlns:xlink="http://www.w3.org/1999/xlink" viewBox="0 0 107 25"><defs><style>.cls-1{fill:url(#_Безымянный_градиент_3);}.cls-1,.cls-2,.cls-3,.cls-4,.cls-5,.cls-6,.cls-7,.cls-8{fill-rule:evenodd;stroke-width:0px;}.cls-2{opacity:.12;}.cls-2,.cls-3,.cls-5{isolation:isolate;}.cls-3{fill:#fff;opacity:.25;}.cls-4{fill:url(#_Безымянный_градиент_2);}.cls-5{opacity:.2;}.cls-6{fill:url(#_Безымянный_градиент);}.cls-7{fill:#808285;}.cls-8{fill:url(#_Безымянный_градиент_4);}</style><linearGradient id="_Безымянный_градиент" x1="2740.03" y1="1210.87" x2="2735.46" y2="1208.51" gradientTransform="translate(-9793.32 8388.39) scale(3.58 -6.93)" gradientUnits="userSpaceOnUse"><stop offset="0" stop-color="#00a0ff"/><stop offset="0" stop-color="#00a1ff"/><stop offset=".26" stop-color="#00beff"/><stop offset=".51" stop-color="#00d2ff"/><stop offset=".76" stop-color="#00dfff"/><stop offset="1" stop-color="#00e3ff"/></linearGradient><linearGradient id="_Безымянный_градиент_2" x1="2681.07" y1="1170.93" x2="2672.68" y2="1170.93" gradientTransform="translate(-7509.97 2787.6) scale(2.81 -2.37)" gradientUnits="userSpaceOnUse"><stop offset="0" stop-color="#ffe000"/><stop offset=".41" stop-color="#ffbd00"/><stop offset=".78" stop-color="orange"/><stop offset="1" stop-color="#ff9c00"/></linearGradient><linearGradient id="_Безымянный_градиент_3" x1="2797.03" y1="1189.87" x2="2792.23" y2="1183.64" gradientTransform="translate(-12881.03 4251.82) scale(4.61 -3.56)" gradientUnits="userSpaceOnUse"><stop offset="0" stop-color="#ff3a44"/><stop offset="1" stop-color="#c31162"/></linearGradient><linearGradient id="_Безымянный_градиент_4" x1="2792.69" y1="1195.78" x2="2794.83" y2="1192.99" gradientTransform="translate(-12881.03 4246.03) scale(4.61 -3.56)" gradientUnits="userSpaceOnUse"><stop offset="0" stop-color="#32a071"/><stop offset=".07" stop-color="#2da771"/><stop offset=".48" stop-color="#15cf74"/><stop offset=".8" stop-color="#06e775"/><stop offset="1" stop-color="#00f076"/></linearGradient></defs><g id="_Слой_2-2"><g id="google_play"><path class="cls-6" d="M.45.39c-.28.3-.45.76-.45,1.37v21.48c0,.6.16,1.07.46,1.36l.08.06,12.07-12.04v-.27L.52.32l-.08.06Z"/><path class="cls-4" d="M16.62,16.65l-4.03-4.01v-.28l4.03-4.01.09.05,4.76,2.7c1.36.76,1.36,2.03,0,2.81l-4.76,2.7-.09.05h0Z"/><path class="cls-1" d="M16.71,16.6l-4.12-4.1L.45,24.61c.45.47,1.19.53,2.02.06l14.24-8.07h0Z"/><path class="cls-8" d="M16.71,8.39L2.47.33C1.64-.14.89-.08.45.4l12.15,12.1,4.12-4.1h0Z"/><path class="cls-5" d="M16.62,16.51L2.48,24.52c-.79.45-1.49.42-1.95,0l-.08.07.08.06c.46.41,1.16.44,1.95,0l14.24-8.06s-.1-.08-.1-.08Z"/><path class="cls-2" d="M21.47,13.76l-4.86,2.75.09.08,4.76-2.7c.68-.39,1.02-.89,1.02-1.4-.05.46-.39.9-1.01,1.26h0Z"/><path class="cls-3" d="M2.47.47l19,10.76c.62.34.97.8,1.02,1.26,0-.5-.34-1.01-1.02-1.4L2.47.33C1.11-.45,0,.2,0,1.76v.14C0,.34,1.11-.29,2.47.47Z"/><path class="cls-7" d="M23.76,11.14c0-3.54,3.02-6.42,6.61-6.42,1.98,0,3.4.77,4.46,1.77l-1.26,1.24c-.76-.7-1.8-1.25-3.21-1.25-2.62,0-4.67,2.08-4.67,4.66s2.05,4.67,4.67,4.67c1.7,0,2.67-.67,3.29-1.28.51-.5.84-1.22.97-2.2h-4.25v-1.75h5.99c.06.31.09.69.09,1.09,0,1.32-.36,2.95-1.54,4.1-1.15,1.18-2.6,1.8-4.54,1.8-3.59,0-6.61-2.88-6.61-6.42h0ZM41.3,9.29c-2.32,0-4.21,1.74-4.21,4.13s1.89,4.13,4.21,4.13,4.21-1.75,4.21-4.13-1.89-4.13-4.21-4.13ZM41.3,15.93c-1.27,0-2.36-1.03-2.36-2.5s1.09-2.5,2.36-2.5,2.36,1.02,2.36,2.5-1.09,2.5-2.36,2.5ZM50.48,9.29c-2.32,0-4.21,1.74-4.21,4.13s1.89,4.13,4.21,4.13,4.21-1.75,4.21-4.13-1.89-4.13-4.21-4.13h0ZM50.48,15.93c-1.27,0-2.36-1.03-2.36-2.5s1.09-2.5,2.36-2.5,2.36,1.02,2.36,2.5-1.1,2.5-2.36,2.5h0ZM61.75,9.54v.67h-.06c-.41-.49-1.21-.93-2.21-.93-2.1,0-4.02,1.82-4.02,4.15s1.92,4.12,4.02,4.12c1,0,1.8-.44,2.21-.94h.06v.6c0,1.58-.86,2.43-2.24,2.43-1.13,0-1.83-.8-2.11-1.47l-1.6.66c.46,1.09,1.68,2.44,3.72,2.44,2.16,0,3.98-1.25,3.98-4.31v-7.42s-1.74,0-1.74,0ZM59.64,15.93c-1.27,0-2.34-1.05-2.34-2.49s1.07-2.52,2.34-2.52,2.24,1.06,2.24,2.52-.98,2.49-2.24,2.49ZM64.76,5.16h1.84v12.15h-1.84V5.16ZM71.66,15.93c-.94,0-1.6-.42-2.03-1.25l5.61-2.29-.19-.47c-.35-.92-1.41-2.63-3.59-2.63s-3.95,1.68-3.95,4.13c0,2.31,1.78,4.13,4.16,4.13,1.92,0,3.04-1.16,3.49-1.83l-1.43-.94c-.48.69-1.13,1.15-2.07,1.14h0ZM71.52,10.89c.73,0,1.35.36,1.56.87l-3.75,1.54c-.05-1.6,1.26-2.41,2.19-2.41h0ZM83.32,5.16h-4.41v12.15h1.84v-4.6h2.57c2.04,0,4.05-1.45,4.05-3.77s-2.01-3.77-4.04-3.77h0ZM83.38,11.01h-2.61v-4.17h2.61c1.37,0,2.16,1.13,2.16,2.08s-.78,2.08-2.16,2.08h0ZM90.22,17.31V5.16h-1.84v12.15h1.84ZM98.49,17.28v-4.66c0-2.16-1.64-3.36-3.74-3.36-1.33,0-2.71.58-3.28,1.86l1.63.67c.35-.67,1-.89,1.68-.89.95,0,1.92.57,1.93,1.56v.12c-.33-.19-1.05-.47-1.92-.47-1.76,0-3.55.95-3.55,2.73,0,1.62,1.44,2.67,3.06,2.67,1.24,0,1.92-.54,2.34-1.19h.06v.94h1.78ZM94.52,15.93c-.6,0-1.44-.3-1.44-1.03,0-.94,1.05-1.3,1.95-1.3.81,0,1.19.17,1.68.41-.14,1.09-1.08,1.91-2.19,1.92h0ZM104.96,9.53l-2.11,5.27h-.06l-2.19-5.27h-1.98l3.28,7.36-1.87,4.1h1.92l5.06-11.46h-2.04Z"/></g></g></svg>