<?xml version="1.0" encoding="UTF-8"?><svg id="_Слой_2" xmlns="http://www.w3.org/2000/svg" width="69.99" height="49.98" viewBox="0 0 69.99 49.98"><defs><style>.cls-1{fill:#00acd2;}.cls-1,.cls-2,.cls-3,.cls-4,.cls-5{stroke-width:0px;}.cls-2{fill:#e3457c;}.cls-4{fill:#fff;}.cls-5{fill:#0b819b;}</style></defs><g id="_Слой_2-2"><g id="_Слой_2-2"><g id="mr_beast"><g id="mr_beast-2"><path class="cls-4" d="M50.99,13.85c.84.03,1.62-.29,2.41-.55-.17.48-.29,1.02-.68,1.37.49-.2.71-.72.99-1.15l.13.28c0,.23,0,.45.02.68-.43.62-1.1,1.06-1.86,1.08-.28-.62-.56-1.23-1.01-1.73h0s0,.02,0,.02ZM59.92,27.79c.87.26,1.78.42,2.69.46-.72.63-1.45,1.24-2.2,1.83-.68.47-1.45.8-2.2,1.15.5-.65,1.04-1.3,1.43-2.02.16-.45.19-.95.28-1.42h0ZM60,31.22c1.37-.83,2.55-1.92,3.72-3.01-.54.63-1.07,1.26-1.69,1.81-.64.45-1.32.86-2.03,1.2h0ZM55.42,35.21c1.07-.41,2.02-1.06,2.99-1.67-.12.5-.47.9-.8,1.28-.54.59-1.13,1.14-1.77,1.62-.41.04-.77-.2-1.14-.34.22-.3.31-.77.71-.89h0ZM58.95,34.21c.09-.22.35-.26.54-.36-.41.82-1.08,1.46-1.7,2.12-.13.15-.31.25-.52.25.63-.62,1.28-1.22,1.68-2.01Z"/><path class="cls-3" d="M28.25,3.36c2.09-1.46,4.34-2.78,6.85-3.36,1.88.49,3.79.89,5.68,1.33.98.39,1.94.85,2.93,1.25.9.37,1.79.79,2.74,1,1.7.43,3.44.7,5.15,1.11.64.12,1.16.53,1.71.86,1.31.86,2.61,1.73,3.86,2.7,1,.74.96,2.17,1.8,3.02,1.71,1.31,3.47,2.6,4.89,4.23.85,1.16,2.02,2.03,3.18,2.88.7.48,1.2,1.18,1.72,1.83.44.58.92,1.15,1.23,1.81-.62,1.09-1.2,2.21-1.8,3.3-.29.62-.86,1.02-1.39,1.44s-1.15.72-1.74,1.05c-.84.93-1.61,1.92-2.55,2.76-1.04.8-2.26,1.32-3.41,1.94v.71c.41-.15.84-.3,1.26-.43.04.39.09.81-.09,1.18-.47,1-1.25,1.8-2.02,2.58.11.53.04,1.15-.38,1.54-.47.45-1.25.35-1.7.83-.87.8-1.77,1.58-2.74,2.24-.44.27-.92.59-1.45.5-2.73-.23-5.54-.83-7.82-2.44.69-.21,1.41-.38,2.11-.56-.67-.35-1.38-.63-2.05-.97.57-.33,1.24-.53,1.74-.98-.63-.09-1.26.04-1.81.35-.88.51-1.47,1.41-1.79,2.37-.36-.04-.61-.45-.94-.61-.12,3.32,1.29,6.52,3.32,9.08.57.76,1.28,1.39,1.94,2.08-2.14-.65-4.25-1.38-6.25-2.39-2.93-1.42-5.63-3.25-8.04-5.42-.27.27-.53.54-.8.82-5.06-4.51-7.79-11.36-7.57-18.09-.24.28-.46.58-.67.87-.06-3.18.33-6.37,1.18-9.44-3.59-.45-7.15-.91-10.73-1.36-4.6-.57-9.19-1.2-13.8-1.73.25-.02.49-.03.74-.04h22.6c.18.04.31-.08.42-.21-.52.05-1.09.27-1.59,0-.34-.21-.26-.65-.11-.96-.35.04-.79.17-1.06-.13-.81-.79-1.62-1.58-2.32-2.47-.23-.33.04-.73.15-1.05-.3.02-.76.16-.94-.18-.37-.8-.65-1.65-.66-2.53-.02-.61.35-1.32,1.02-1.37,3.2-.27,6.4-.57,9.6-.84.13-.03.29-.02.42-.11h-.02ZM30.86,2.55c-.38.24-.81.43-1.14.75.65-.07,1.3-.15,1.96-.1.19,0,.32.15.45.28-.62.45-1.42.39-2.14.47-3.85.34-7.69.72-11.55,1.07-.3-.03-.49.27-.5.54-.05.74.22,1.46.47,2.14.34-.02.76-.14,1.04.12.37.37-.02.87-.17,1.26.66.82,1.42,1.57,2.18,2.31.38-.03.81-.18,1.16.05.33.27.14.73,0,1.05.48-.03,1.06-.19,1.48.13.2.16.08.4.02.59,3.87-.03,7.73.02,11.59-.02-2.3-1.14-4.62-2.25-6.95-3.34-.18.37-.39.72-.57,1.09-.09-.79.12-1.56.39-2.29-1.48-.06-2.93-.37-4.37-.73-.4-.1-.8-.25-1.21-.27-.41-.18-.85-.3-1.28-.36-.18-.04-.45.07-.49-.21-.13.17-.27.19-.4.07v-.16l-.24-.07-.09.12c-.08-.21-.34-.03-.5-.06.29-.35.67-.62,1.11-.76,1.47.51,2.97.93,4.49,1.27,1.07.22,2.16.44,3.26.39.4-.92.85-1.84,1.47-2.62-.3,1.56-.86,3.07-1.53,4.51,7.91.23,15.81.44,23.72.65-.59-.55-1.22-1.05-1.79-1.62.85.58,1.65,1.19,2.49,1.78.46.29.53.87.69,1.36.49-.65.2-1.46.12-2.19.19.48.33,1,.41,1.51,0,.43-.23.81-.29,1.22.06.25.16.48.22.73.51.19,1.07.23,1.61.27-.7.23-1.45.43-2.2.31l-.13-.28c-.27.42-.48.95-.99,1.15.4-.36.51-.9.68-1.38-.78.26-1.57.58-2.41.55.46.49.73,1.12.99,1.73.77,0,1.43-.46,1.86-1.08.26.37.52.75.78,1.12-.24-.11-.47-.24-.7-.34-.42.44-.97.72-1.57.82-.4.08-.8-.04-1.19-.05-.66-.08-1.35-.21-2.01-.16-.87-.07-1.76-.1-2.63-.15-.71-.06-1.43-.09-2.15-.11.28.27.57.52.87.75,1.18,1,2.35,2,3.53,2.99-.3.09-.62,0-.92-.04-7.59-.98-15.18-1.91-22.76-2.91-.63,2.41-.99,4.88-1.07,7.37.28-.28.5-.62.77-.93-.05,1.18-.16,2.37-.09,3.55.18,5.82,2.62,11.59,6.87,15.61.27-.27.53-.54.81-.81,2.44,2.37,5.32,4.25,8.36,5.76.31.17.64.3.97.41.79.43,1.63.73,2.47,1.03-1.58-2-2.8-4.32-3.29-6.83-.28-1.37-.25-2.79-.09-4.17.36.37.8.64,1.2.97.59-1.1,1.59-2.05,2.84-2.31-.73-.49-1.48-.94-2.26-1.35-.53-.27-1.07-.57-1.66-.7.41.81,1.03,1.48,1.49,2.26-2.21-1.55-4.59-2.88-7.1-3.87-.48-.18-.96-.41-1.47-.47-.76-.32-1.59-.45-2.39-.63.82-.07,1.62.09,2.43.24,2.2.48,4.3,1.37,6.27,2.47.02-.21,0-.45.18-.59.32-.32.81-.15,1.18-.03,1.09.41,2.09,1.03,3.09,1.62-.96-1.33-2.17-2.46-3.41-3.52,1.2.49,2.26,1.29,3.21,2.16,1.07.98,1.95,2.16,2.57,3.47-.3.26-.78.32-1.02.62.51.27,1.07.46,1.53.83.23.16.18.6-.11.64-.41.11-.83.17-1.23.28.14.12.31.22.49.28,1.79.71,3.7,1.08,5.62,1.19.47-.1.85-.44,1.24-.71.85-.6,1.61-1.3,2.37-1.99.41-.4,1.04-.37,1.52-.67.19-.16.18-.43.25-.64-.31,0-.63-.08-.9-.23-.29.2-.55.6-.95.49-.66-.08-1.25-.4-1.81-.73v-.37c.13-.36.35-.68.48-1.04-.79-.43-1.68-.78-2.25-1.51.11-.31.21-.64.29-.96-.39-.21-.78-.44-1.15-.68.13-.27.24-.55.3-.84-.24-.13-.47-.28-.69-.44.1.9,0,1.91.54,2.7.55.92,1.15,1.83,1.99,2.52-.61-.28-1.05-.82-1.59-1.2.45.82.93,1.63,1.57,2.31-.15-.05-.3-.09-.46-.13-.47-.37-.98-.74-1.34-1.23-1.31-1.61-1.7-3.77-1.62-5.8.09-1.31.24-2.73,1.13-3.76.78-.82,1.7-1.46,2.63-2.09.12-.08.21-.19.24-.32.41,0,.81.03,1.22.03.09.1.19.21.29.3.32.71.62,1.56,1.4,1.9,1.73.85,3.59,1.48,5.51,1.66,1.7.15,3.29-.72,4.52-1.8.52-.39.72-1.02,1.05-1.55-.33,0-.66-.02-.98-.09.03.1.09.31.12.42-.19-.17-.36-.38-.49-.6-.56-1.04-.94-2.16-1.34-3.27-.11-.3-.17-.68-.48-.85-.72-.44-1.46-.82-2.24-1.14-.99-.09-1.99,0-2.95.21-.28.09-.59.15-.76.41-.37.47-.72.97-1.16,1.38.31-.57.65-1.14,1.01-1.68.5-.51,1.27-.55,1.92-.75.76-.31,1.52-.63,2.29-.92-.2-.1-.4-.23-.63-.26-1.31-.02-2.59.31-3.88.51.99-.36,1.99-.67,3.04-.82-.2-.14-.43-.23-.67-.25-.91-.1-1.82-.21-2.74-.18.94-.28,1.95-.27,2.93-.24.89.17,1.73.55,2.55.92.24.09.49.08.75.1-.17-.18-.35-.35-.54-.52-1.35-.09-2.62-.65-3.76-1.36-.97-.36-2.02-.02-3.02.04.91-.28,1.85-.6,2.82-.55.35,0,.63.24.91.4.82.47,1.72.84,2.66.97-1.11-1.32-2.49-2.38-3.84-3.43-.53-.44-1.17-.77-1.52-1.38-.03.29-.06.6-.11.89-.13.25-.35.43-.54.63.32-.82.11-1.72.06-2.57,0-.55-.28-1.05-.71-1.38-1.13-.87-2.32-1.67-3.5-2.45-.58-.36-1.14-.81-1.82-.94-.91-.2-1.82-.41-2.75-.57-2.74-.45-5.48-.9-8.15-1.64,1.37.11,2.72.44,4.08.56-.73-.36-1.5-.64-2.25-.97-.69-.27-1.34-.66-2.07-.82-1.71-.36-3.4-.79-5.1-1.15-1.5.26-2.89.98-4.22,1.73h-.03ZM32.13,10.62l.37.21c2.17,1.03,4.32,2.07,6.48,3.12H12.37c-.26,0-.5.02-.76.04,11.63,1.46,23.25,2.97,34.88,4.42-1.32-1.15-2.69-2.26-4-3.41,2.92.15,5.83.25,8.74.48-.19-.57-.36-1.18-.77-1.64-.47-.16-.98-.25-1.44-.45.96-.21,1.98-.11,2.91-.46.52-.19,1.04-.39,1.58-.54-.05-.41-.12-.81-.25-1.19-7.04-.18-14.09-.37-21.12-.56h0v-.02h-.01ZM63.19,17.62c-.47.18-.97.27-1.42.48.38.03.8-.08,1.15.12.87.45,1.8.85,2.55,1.51-.11-.61-.43-1.14-.73-1.66.96.75,1.13,2.04,1.36,3.16.58-.02,1.16-.03,1.74,0,.4.35.76.75,1.21,1.04.03-.06.09-.18.11-.24-.21-.46-.58-.83-.86-1.24-.5-.63-.96-1.31-1.62-1.77-.6-.45-1.19-.92-1.8-1.35-.55-.16-1.15-.29-1.68-.06h0ZM66.12,21.52c.15.8.64,1.47.9,2.23.39.09.95.33,1.23-.07-.33,0-.67.03-1.02.04-.24-.61-.51-1.22-.59-1.88.33-.02.67-.02,1.02,0,.28.41.66.9,1.22.83-.35-.45-.84-.77-1.23-1.18h-1.54v.03h0ZM52.49,25.95c.6.46,1.15.98,1.66,1.54.27.3.51.66.51,1.09.02.97.09,1.94.25,2.9.14.96.32,1.93.76,2.81,1.22-.57,2.3-1.36,3.4-2.11.06-.2.11-.41.17-.61-1.13.55-2.31.98-3.47,1.47,1.08-1.33,2.21-2.62,3.13-4.06.18-.44.18-.93.28-1.39-1.03-.36-2.05-.74-2.99-1.3-.74-.45-1.02-1.31-1.39-2.04l-.09-.03c-.78.53-1.5,1.15-2.23,1.73,0,0,0,0,.01,0ZM50.97,29.57c.33.58,1,.85,1.58,1.14-.11.3-.23.61-.33.91.33.2.67.4,1.02.6-.05.41-.12.82-.24,1.2.64.41,1.29.78,1.98,1.11-.71-1.59-.88-3.36-1.01-5.09-.06-.43.08-.92-.21-1.28-.49-.65-1.16-1.17-1.79-1.69-.78.82-.92,2.02-1,3.1h0ZM59.92,27.79c-.09.47-.12.96-.28,1.41-.4.72-.92,1.37-1.43,2.02.75-.36,1.52-.67,2.2-1.15.76-.58,1.48-1.2,2.2-1.83-.9-.04-1.8-.2-2.69-.45h0ZM60,31.22c.71-.34,1.39-.74,2.02-1.2.63-.54,1.16-1.18,1.69-1.81-1.16,1.09-2.35,2.18-3.71,3.01h0ZM55.42,35.21c-.4.12-.49.59-.71.89.37.14.73.38,1.14.34.64-.48,1.23-1.03,1.77-1.62.33-.38.67-.78.8-1.28-.96.61-1.92,1.26-2.99,1.67h0ZM58.95,34.21c-.4.79-1.05,1.39-1.67,2.01.2,0,.39-.09.52-.25.62-.66,1.28-1.31,1.7-2.12-.2.1-.47.14-.55.36h0Z"/><path class="cls-3" d="M55.79,16.91c.22.28.27.67.22,1.02-.22.48-.64.85-1.14,1.02.15-.56.57-.99.72-1.54.06-.18.12-.35.2-.51h0Z"/><path class="cls-3" d="M56.24,17.53c.2.42.33.89.27,1.36-.42.63-1.09,1.17-1.87,1.23.46-.48.94-.95,1.37-1.45.1-.38.13-.77.24-1.15h-.01ZM55.48,20.87c.86.11,1.72.27,2.57.47.49-.09.98-.19,1.47-.23.31.18.6.42.84.68-.28-.13-.56-.27-.84-.42-.22.05-.44.09-.65.13.35.2.76.24,1.13.38,1.4.46,2.78.94,4.1,1.6-1.89-.64-3.75-1.37-5.69-1.86-.66.08-1.29.29-1.96.26.42-.16.85-.29,1.28-.45-.75-.25-1.53-.36-2.27-.58,0,0,.02.02.02.02ZM61.29,21.2c1.24.32,2.45,1.04,3.17,2.12-.88-.93-2.03-1.55-3.17-2.12Z"/><path class="cls-3" d="M49.74,21.97c2.18-.06,4.33.27,6.49.46.37-.09.71-.26,1.07-.38l-.47.47c2.48.33,4.97.7,7.4,1.28-2.52-.43-5.03-.79-7.56-1.13-.39.3-.76.64-1.13.96l-.18-.17c-.29.19-.66.13-.99.13.03-.05.09-.15.12-.21.47-.29.96-.53,1.43-.81-2.05-.27-4.11-.48-6.19-.62h0v.02h.01ZM56.84,24.61c2.45-.27,4.92-.21,7.38-.04-.52.07-1.04.03-1.56.04h-5.82ZM50.27,35.86c.48.45.94.93,1.36,1.44.1.15.28.2.46.25.88.23,1.78.44,2.7.42-.93.62-2.15.54-3.16.2-.39-.1-.56-.51-.75-.82-.26-.47-.46-.97-.6-1.48h-.01Z"/><path class="cls-1" d="M30.86,2.55c1.33-.75,2.72-1.47,4.23-1.75,1.7.36,3.39.8,5.1,1.15.73.16,1.37.56,2.07.82.74.34,1.51.61,2.25.97-1.37-.12-2.72-.44-4.08-.56,2.67.74,5.41,1.19,8.15,1.64.92.16,1.83.37,2.75.57.68.14,1.24.58,1.82.94,1.19.8,2.37,1.59,3.5,2.45.45.32.71.83.73,1.38.06.85.27,1.74-.06,2.57.19-.2.41-.38.54-.63.07-.29.09-.59.11-.89.35.61.99.95,1.52,1.38,1.36,1.05,2.73,2.11,3.84,3.43-.94-.13-1.84-.49-2.66-.97-.29-.16-.56-.42-.91-.4-.97-.05-1.91.27-2.82.55,1-.06,2.04-.4,3.02-.04,1.14.71,2.4,1.28,3.76,1.36.19.17.37.34.54.52-.26-.03-.51,0-.75-.1-.83-.37-1.66-.75-2.55-.92-.98-.04-1.98-.05-2.93.24.92-.03,1.83.07,2.74.18.25.02.47.11.67.25-1.04.15-2.05.46-3.04.82,1.28-.2,2.56-.54,3.88-.51.23.03.43.15.63.26-.77.29-1.53.61-2.29.92-.65.2-1.42.24-1.92.75-.36.54-.69,1.11-1.01,1.68.44-.42.79-.91,1.16-1.38.17-.26.48-.32.76-.41.97-.22,1.97-.28,2.95-.21.78.32,1.53.7,2.24,1.14.32.17.37.54.48.85.4,1.11.78,2.23,1.34,3.27.13.22.3.43.49.6-.03-.1-.09-.31-.12-.42.32.08.65.1.98.09-.33.53-.54,1.17-1.05,1.55-1.23,1.08-2.82,1.96-4.52,1.8-1.92-.18-3.79-.81-5.51-1.66-.77-.33-1.07-1.18-1.4-1.9v-.18c.92.02,1.84.11,2.76.09.77-.04,1.54.13,2.31.12,1.19.04,2.36.26,3.54.19-1.59-.32-3.22-.36-4.82-.49-.7-.09-1.42-.03-2.12-.09-.55-.02-1.12-.17-1.64.07.37-.32.74-.64,1.13-.96,2.52.33,5.03.7,7.55,1.12-2.44-.58-4.92-.94-7.4-1.28l.47-.47c-.36.12-.7.29-1.07.38-2.16-.2-4.32-.53-6.49-.46,2.07.13,4.14.36,6.2.63-.47.27-.97.51-1.43.81-1.31.23-2.66-.02-3.99.18-1.51.04-3.02.15-4.52.34,1.02.16,2.03-.09,3.06-.08,1.47.03,2.93-.2,4.41-.09-.71.43-1.47.78-2.16,1.26s-1.41.96-1.81,1.7c-.45.82-.57,1.78-.64,2.7-.09,1.91.28,3.91,1.36,5.52.65.92,1.59,1.73,2.74,1.89.15.04.3.09.46.13-.65-.68-1.12-1.5-1.57-2.31.53.39.98.92,1.59,1.2.15.09.31.16.47.25v.37c.56.34,1.16.66,1.81.73.4.1.66-.29.95-.49.28.15.59.23.9.23-.07.22-.05.48-.25.64-.47.3-1.1.27-1.52.67-.77.69-1.53,1.39-2.37,1.99-1.89-.09-3.77-.32-5.63-.7.29-.2.84-.33.75-.79-.25-.79-1.07-1.13-1.64-1.66-.63-1.31-1.5-2.49-2.57-3.47-.95-.87-2.01-1.66-3.21-2.16,1.25,1.05,2.45,2.19,3.41,3.52-1-.59-1.99-1.21-3.09-1.62-.37-.12-.86-.29-1.18.03-.18.14-.17.39-.18.59-1.96-1.1-4.06-2-6.27-2.47-.8-.14-1.61-.3-2.43-.24.8.18,1.63.3,2.39.63.48.37,1.07.53,1.61.8,1.34.63,2.64,1.36,3.73,2.36.69.65,1.31,1.42,1.63,2.32-.16,1.38-.19,2.8.09,4.17.48,2.51,1.71,4.83,3.28,6.83-.84-.3-1.68-.61-2.47-1.03-.7-.58-1.48-1.06-2.19-1.62-2.01-1.56-3.9-3.28-5.73-5.06-.45-.42-.85-.88-1.32-1.27-.32.2-.65.39-.98.58-1.42-1.22-2.44-2.85-3.09-4.61-.92-2.48-1.24-5.16-1.23-7.79-.02-2.03.15-4.07.5-6.07-.47.12-.94.24-1.41.36.16-1.05.44-2.08.82-3.07,6.4.14,12.8.38,19.21.53.87-.02,1.75.04,2.62.15-.03-.04-.08-.11-.1-.16-1.19-.99-2.36-1.98-3.53-2.99,1.31-.11,2.62-.13,3.94-.2.66-.09,1.31-.14,1.98-.12.4,0,.8.12,1.19.05.6-.09,1.15-.38,1.57-.82.24.1.47.23.7.34-.26-.37-.52-.75-.78-1.12,0-.23,0-.45-.02-.68.75.11,1.49-.09,2.2-.31-.55-.05-1.1-.09-1.61-.27-.06-.25-.16-.48-.22-.73.07-.42.3-.8.29-1.22-.08-.52-.22-1.02-.41-1.51.08.73.37,1.55-.12,2.19-.16-.47-.24-1.05-.69-1.36-.84-.59-1.64-1.2-2.49-1.78.57.57,1.2,1.07,1.79,1.62l-23.72-.65c.66-1.44,1.23-2.95,1.53-4.51-.63.79-1.07,1.71-1.47,2.62-1.1.05-2.18-.17-3.26-.39-1.52-.34-3.02-.77-4.49-1.27-.44.14-.82.41-1.11.76.16.03.43-.16.5.06l.09-.12.24.07v.16c.13.12.27.1.4-.07.05.27.31.17.49.21.45.06.87.17,1.28.36,1.26.53,2.6.82,3.92,1.18.3.09.66.27.67.63-.06.4-.28.77-.31,1.18-.05.6.06,1.19.29,1.73.2-.47.39-.96.6-1.43.18-.36.39-.72.57-1.09,2.33,1.08,4.64,2.2,6.95,3.34-3.87.04-7.73,0-11.59.02.06-.2.18-.44-.02-.59-.42-.33-.99-.16-1.48-.14.13-.32.32-.79,0-1.05-.34-.23-.78-.08-1.16-.05-.76-.74-1.52-1.49-2.18-2.31.14-.39.53-.89.17-1.26-.28-.27-.7-.14-1.04-.12-.27-.68-.52-1.4-.48-2.14,0-.27.2-.57.5-.54,3.85-.35,7.69-.73,11.55-1.07.72-.09,1.53-.03,2.14-.47-.12-.12-.26-.27-.45-.28-.66-.06-1.31.04-1.96.1.33-.25.75-.44,1.14-.67h0l.04-.06h0ZM55.79,16.91c-.07.17-.13.33-.19.5-.16.55-.57.99-.72,1.54.5-.17.92-.54,1.14-1.02.04-.34,0-.73-.23-1.01h0ZM56.24,17.53c-.1.38-.13.77-.24,1.14-.43.51-.91.97-1.37,1.45.78-.07,1.45-.61,1.87-1.23.08-.45-.07-.93-.27-1.36h.01ZM55.48,20.87c.74.23,1.52.33,2.26.56-.43.15-.85.28-1.28.45.66.05,1.3-.18,1.96-.26,1.94.48,3.8,1.22,5.69,1.86-1.32-.65-2.71-1.13-4.1-1.59-.37-.13-.79-.18-1.13-.38.21-.05.43-.09.65-.13.28.14.55.28.84.42-.24-.27-.52-.5-.84-.68-.49.04-.98.15-1.47.23-.84-.19-1.7-.35-2.56-.46h0s-.02-.02-.02-.02ZM61.3,21.2c1.13.58,2.28,1.18,3.17,2.12-.73-1.08-1.94-1.8-3.17-2.12ZM56.84,24.61h5.81c.52,0,1.04.03,1.56-.04-2.45-.17-4.93-.23-7.37.04h0ZM50.27,35.86c.14.51.34,1,.59,1.47.19.31.36.72.75.82,1.02.34,2.23.43,3.16-.2-.92.02-1.81-.19-2.7-.42-.17-.05-.35-.09-.46-.25-.41-.5-.85-.99-1.35-1.43h0Z"/><path class="cls-1" d="M44.65,15.75c.62-.06,1.24,0,1.86-.02.87.05,1.76.09,2.63.15-.27.08-.53.12-.81.12-.95,0-1.91-.07-2.86-.08-.28-.03-.59,0-.83-.18h.01ZM63.19,17.62c.53-.23,1.13-.1,1.67.05.62.43,1.2.9,1.8,1.35.66.46,1.12,1.16,1.62,1.77.28.42.66.78.86,1.24-.03.06-.09.18-.11.24-.44-.29-.81-.69-1.21-1.04-.58-.03-1.16-.02-1.74,0-.23-1.12-.4-2.41-1.36-3.16.3.52.62,1.05.73,1.66-.75-.65-1.66-1.06-2.55-1.51-.35-.2-.77-.09-1.15-.12.46-.21.96-.3,1.42-.47h.02,0Z"/><path class="cls-5" d="M23.02,7.65c.42.03.81.17,1.21.27,1.43.36,2.89.67,4.37.73-.27.73-.47,1.51-.39,2.29-.21.47-.4.96-.6,1.43-.24-.55-.34-1.15-.29-1.73.03-.41.26-.78.31-1.18-.02-.36-.38-.54-.67-.63-1.33-.36-2.67-.66-3.93-1.19h0ZM44.36,15.61c.71.03,1.43.07,2.15.11-.63,0-1.24-.04-1.86.02.24.18.54.16.83.17.95,0,1.91.08,2.86.08.28,0,.55-.04.81-.12.67-.05,1.35.09,2.01.16-.66-.02-1.32.03-1.98.12-1.31.07-2.63.09-3.94.2-.29-.22-.59-.47-.87-.74,0,0,0,0-.01,0ZM24.01,23.78c.09-2.49.45-4.97,1.07-7.37,7.58,1,15.18,1.93,22.76,2.91.3.02.62.11.92.04.03.04.08.12.1.16-.86-.11-1.75-.16-2.62-.14-6.4-.15-12.8-.39-19.21-.53-.38,1-.65,2.02-.82,3.07.47-.12.94-.25,1.41-.36-.35,2-.52,4.04-.5,6.07,0,2.64.31,5.31,1.23,7.79.65,1.74,1.66,3.38,3.09,4.61.33-.19.66-.38.98-.58.47.39.87.84,1.32,1.27,1.82,1.77,3.72,3.49,5.73,5.06.71.57,1.49,1.04,2.19,1.62-.34-.1-.66-.24-.97-.41-3.04-1.52-5.92-3.39-8.36-5.76-.28.27-.54.53-.81.81-4.25-4.03-6.69-9.8-6.87-15.61-.07-1.18.06-2.37.09-3.55-.23.29-.45.64-.74.92v-.02h.01Z"/><path class="cls-5" d="M50.53,23.58c1.32-.21,2.67.05,3.99-.18-.03.05-.09.15-.12.21.33,0,.69.06.99-.13l.18.17c.52-.24,1.09-.09,1.64-.07.7.08,1.42,0,2.12.09,1.61.14,3.24.18,4.82.49-1.19.07-2.36-.15-3.54-.19-.77.02-1.54-.15-2.31-.12-.92.03-1.84-.07-2.76-.09v.18c-.09-.1-.2-.21-.29-.3-.41,0-.81,0-1.22-.03-.04.13-.12.25-.24.32-.92.64-1.85,1.28-2.63,2.09-.89,1.02-1.04,2.45-1.13,3.76-.07,2.03.31,4.18,1.62,5.8.36.49.86.85,1.34,1.23-1.16-.15-2.1-.97-2.74-1.89-1.07-1.61-1.43-3.6-1.36-5.52.07-.92.19-1.88.64-2.7.41-.75,1.13-1.22,1.81-1.7s1.44-.83,2.16-1.26c-1.47-.1-2.93.12-4.41.09-1.03-.02-2.04.24-3.06.08,1.49-.21,3-.32,4.51-.36h0v.03h0ZM33.81,31.92c.52.06,1,.29,1.47.47,2.52.99,4.89,2.32,7.1,3.87-.47-.77-1.07-1.45-1.49-2.26.59.13,1.12.43,1.66.7.78.41,1.53.85,2.26,1.35-1.25.27-2.25,1.21-2.84,2.31-.4-.31-.84-.6-1.2-.96-.32-.9-.94-1.67-1.63-2.32-1.08-1-2.39-1.74-3.73-2.36-.53-.27-1.12-.45-1.61-.81h.01ZM46.94,37.12c.56.52,1.39.87,1.64,1.65.09.45-.46.59-.75.79,1.85.38,3.73.62,5.63.7-.39.27-.77.61-1.24.71-1.92-.11-3.84-.48-5.62-1.19-.18-.07-.35-.16-.49-.28.41-.1.83-.17,1.23-.28.29-.05.34-.48.11-.64-.46-.37-1.02-.57-1.53-.83.24-.28.71-.35,1.02-.61v-.02Z"/><path class="cls-2" d="M32.13,10.62c7.04.18,14.09.37,21.12.57.12.39.2.79.25,1.19-.53.15-1.05.35-1.58.54-.93.35-1.95.26-2.91.46.47.2.97.28,1.44.45.41.45.59,1.06.77,1.64-2.91-.24-5.82-.33-8.74-.48,1.32,1.16,2.68,2.26,4,3.41-11.63-1.45-23.25-2.96-34.88-4.41.25-.02.5-.03.76-.04h26.6c-2.16-1.05-4.32-2.09-6.48-3.12l-.37-.22h.02ZM66.12,21.52c.51,0,1.03-.02,1.55,0,.4.41.87.73,1.23,1.18-.55.07-.94-.43-1.22-.83-.33-.03-.67-.03-1.02,0,.08.65.35,1.27.59,1.88.33,0,.67-.03,1.02-.04-.28.4-.85.16-1.23.07-.28-.76-.76-1.43-.91-2.23h0v-.03h0ZM50.97,29.58c.08-1.08.22-2.28,1-3.11.63.52,1.28,1.03,1.79,1.69.29.36.15.85.21,1.28.12,1.73.29,3.5,1.01,5.09-.68-.32-1.34-.69-1.98-1.11.11-.4.19-.8.24-1.2-.34-.19-.68-.4-1.02-.6.1-.3.21-.61.33-.91-.58-.27-1.24-.56-1.58-1.13Z"/></g></g></g></g></svg>