<?xml version="1.0" encoding="UTF-8"?><svg id="_Слой_2" xmlns="http://www.w3.org/2000/svg" width="64" height="50" viewBox="0 0 64 50"><defs><style>.cls-1,.cls-2,.cls-3,.cls-4,.cls-5{stroke-width:0px;}.cls-1,.cls-5{fill:#211d1e;}.cls-2{fill:#018bd5;}.cls-3{fill:#fcb014;}.cls-4{fill:#bf1b20;}.cls-5{fill-rule:evenodd;}</style></defs><g id="_Слой_1-2"><g id="mtv"><path class="cls-2" d="M52.05.18l4.6,2.95v38.02l-4.6,2.45V.18Z"/><path class="cls-1" d="M52.15,43.8l-.32-.19V.18l.34-.18,4.6,2.95.1.18v38.02l-.12.19-4.6,2.45ZM52.26.58v42.67l4.17-2.22V3.26l-4.17-2.68Z"/><path class="cls-3" d="M26.1,7.73L33.01.37h19.04v43.08h-19.04v-20.09l-6.91,7.21-7.06-7.21v20.09H.31V.37h18.73l7.06,7.36Z"/><path class="cls-1" d="M52.35,43.76h-19.65v-19.63l-6.6,6.88-6.76-6.9v19.64H0V.07h19.17l6.93,7.22L32.88.07h19.48v43.69ZM33.32,43.15h18.42V.68h-18.6l-7.04,7.5L18.91.68H.61v42.47h18.12v-20.53l7.37,7.52,7.22-7.53v20.54Z"/><path class="cls-2" d="M31.32,29.35l1.69-1.53v-4.45l-7.06,7.21,5.37-1.23Z"/><path class="cls-1" d="M25.99,30.79l-.2-.36,7.06-7.21.37.15v4.45l-.07.16-1.69,1.53-.1.05-5.37,1.23ZM32.79,23.9l-6.17,6.3,4.59-1.05,1.58-1.42v-3.82Z"/><path class="cls-2" d="M19.04,23.37l3.84,4.14v13.65l-3.84,2.45v-20.24Z"/><path class="cls-1" d="M19.15,43.79l-.33-.18v-20.24l.38-.15,3.84,4.14.06.15v13.65l-.1.18-3.84,2.45ZM19.25,23.92v19.29l3.41-2.17v-13.44l-3.41-3.68Z"/><path class="cls-2" d="M18.88.22l7.91,2.92,1.84,1.83-2.54,2.76L18.88.22Z"/><path class="cls-1" d="M25.94,7.88L18.73.37l.23-.35,7.91,2.92.08.05,1.84,1.83v.3s-2.53,2.76-2.53,2.76h-.32ZM19.69.75l6.4,6.67,2.24-2.44-1.66-1.65-6.98-2.57Z"/><path class="cls-5" d="M11.44,45.19c-1.01,0-1.64.44-1.64,1.3,0,.18.03.33.08.47.06.18.17.32.3.45.25.23.59.41.99.6.26.13.54.24.67.47.04.07.06.15.06.24,0,.23-.14.46-.45.46-.42,0-.52-.24-.52-.5v-.32h-1.21v.48c0,.61.51,1.16,1.71,1.16,1.08,0,1.68-.48,1.68-1.37v-.15c-.03-.47-.21-.74-.49-.95-.27-.21-.64-.35-1.07-.57-.05-.03-.1-.06-.15-.08-.26-.15-.43-.29-.4-.57.03-.2.19-.32.45-.31.44.03.42.4.44.67h1.2c.06-.87-.52-1.49-1.65-1.49h0ZM16.97,45.19c-1.2,0-1.75.46-1.75,1.47v1.89c0,.94.46,1.46,1.67,1.46,1.34,0,1.89-.54,1.89-1.33v-.57h-1.3v.41c0,.28-.04.67-.49.67-.35,0-.47-.15-.47-.41v-2.27c0-.31.1-.48.51-.48.25,0,.42.21.42.6v.29h1.31v-.38c0-.94-.67-1.33-1.78-1.33h0ZM41.54,45.19c-1.01,0-1.64.44-1.64,1.3,0,.18.02.33.08.47.06.18.17.32.3.45.25.23.59.41.99.6.26.13.54.24.67.47.04.07.06.15.06.24,0,.23-.13.46-.44.46-.42,0-.51-.24-.51-.5v-.32h-1.22v.48c0,.61.51,1.16,1.71,1.16,1.08,0,1.68-.48,1.68-1.37,0-.05,0-.11,0-.15-.02-.47-.2-.74-.48-.95-.27-.21-.64-.35-1.07-.57-.05-.03-.1-.06-.15-.08-.26-.15-.43-.29-.4-.57.03-.2.19-.32.45-.31.43.03.41.4.43.67h1.21c.06-.87-.52-1.49-1.66-1.49h0ZM47.11,45.19c-1.15,0-1.79.48-1.79,1.37v1.87s0,.04,0,.05c0,1.01.48,1.52,1.78,1.52s1.74-.51,1.76-1.52v-1.92c0-.89-.62-1.37-1.76-1.37h0ZM.52,45.3v4.6h1.24l-.05-1.41-.04-1.52-.03-.68h0l.17.68.38,1.52.35,1.41h.98l.36-1.41.39-1.52.17-.68h.02l-.03.68-.06,1.52-.05,1.41h1.24v-4.6h-1.83l-.43,1.67-.27,1.05h-.02l-.26-1.05-.42-1.67H.52ZM6.02,45.3v3.33c0,.94.65,1.37,1.75,1.37,1.34,0,1.76-.6,1.76-1.37v-3.33h-1.31v3.44c0,.2-.1.44-.45.44-.37,0-.45-.19-.45-.41v-3.47h-1.31ZM13.47,45.3v4.6h1.31v-4.6h-1.31ZM20.61,45.3v.92h1.03v3.68h1.3v-3.68h1.05v-.92h-3.39ZM24.28,45.3v4.6h3.08v-.92h-1.77v-.99h1.64v-.92h-1.64v-.85h1.69v-.92h-3ZM27.7,45.3v4.6h2.9v-.92h-1.6v-3.68h-1.31ZM30.83,45.3v4.6h3.08v-.92h-1.78v-.99h1.63v-.92h-1.63v-.85h1.68v-.92h-2.99ZM34.06,45.3l.44,1.67.4,1.52.38,1.41h1.54l.38-1.41.4-1.52.45-1.67h-1.31l-.35,1.67-.31,1.52v.04h-.02v-.04s-.32-1.52-.32-1.52l-.35-1.67h-1.3ZM38.25,45.3v4.6h1.31v-4.6h-1.31ZM43.57,45.3v4.6h1.31v-4.6h-1.31ZM49.25,45.3v4.6h1.24l-.06-1.41-.05-1.15.02-.02.46,1.16.55,1.41h1.34v-4.6h-1.24l.08,1.67.04.9h-.02l-.35-.9-.65-1.67h-1.35ZM47.1,46.01c.43,0,.45.34.45.62v1.89c0,.27-.02.66-.45.66s-.48-.39-.48-.66v-1.89c0-.28.04-.62.47-.62h0ZM55.13,47.97c.79,0,1.44-.64,1.44-1.45s-.65-1.44-1.44-1.44-1.45.65-1.45,1.44c0,.8.64,1.45,1.44,1.45,0,0,0,0,.01,0ZM55.13,47.7c-.65,0-1.18-.52-1.18-1.17,0,0,0,0,0,0,0-.64.53-1.17,1.18-1.17s1.17.52,1.17,1.17-.52,1.18-1.17,1.18ZM55.47,46.65c.28-.02.43-.14.43-.42,0-.16-.05-.31-.18-.4-.12-.08-.29-.08-.43-.08h-.75v1.56h.31v-.66h.31l.35.66h.35l-.38-.66ZM54.84,46.42v-.44h.38c.15,0,.38,0,.38.2s-.12.24-.3.24h-.45Z"/><path class="cls-4" d="M45.83,22.29c.31,1.3.85,4.99,2.38,1.3,2.71-6.52,5.23-8.93,9.05-14.33.51-.72.63-1.28,1.31-1.84,1.16-.96,2.42-1.61,3.76-.92,1.67.86,1.69,3.33.69,4.75-1.08,1.54-2.91,1.77-3.6,2.61-3.36,4.1-4.64,6.87-7.22,11.5-.71,1.27-1.27,1.93-1.77,3.29-.54,1.5-.54,1.92-.77,3.99-.13,1.17-.38,2.37-1.76,2.53-2,.23-2.96-1.4-3.46-2.91-1.84-5.6-3.53-12.8-3.45-13.8.08-1.04.96-1.68,1.99-1.77,1.09-.08,2.09.54,2.31,1.61.15.77.29,2.95.54,3.98h0Z"/><path class="cls-1" d="M47.53,35.5c-.83,0-1.54-.31-2.14-.92-.51-.52-.92-1.27-1.24-2.23-1.78-5.39-3.55-12.78-3.47-13.92.04-.58.3-1.08.75-1.45.4-.34.94-.55,1.52-.6.61-.05,1.21.1,1.68.42.5.34.84.85.95,1.43.07.34.13.9.2,1.56.09.86.2,1.83.34,2.42h0c.03.13.06.29.1.45.1.47.23,1.06.39,1.53.23.65.4.68.41.68h0s.32-.02.9-1.4c2.06-4.95,4.02-7.56,6.5-10.86.81-1.09,1.66-2.21,2.59-3.53.17-.24.29-.46.41-.67.24-.43.46-.83.95-1.23.98-.81,2.48-1.79,4.1-.96.72.37,1.21,1.02,1.42,1.88.27,1.1.03,2.4-.62,3.32-.67.96-1.63,1.45-2.4,1.84-.52.26-.97.49-1.21.79-2.77,3.38-4.11,5.83-5.97,9.23-.38.7-.78,1.43-1.22,2.22-.23.41-.44.76-.64,1.09-.42.68-.77,1.26-1.1,2.16-.47,1.3-.52,1.76-.68,3.3-.02.19-.04.4-.07.62-.07.61-.17,1.24-.45,1.76-.33.61-.86.96-1.58,1.04-.14.02-.27.02-.41.02ZM43.19,17c-.06,0-.12,0-.18,0-.8.07-1.64.55-1.71,1.48-.07.95,1.63,8.21,3.44,13.68.66,1.98,1.68,2.87,3.13,2.7,1.05-.12,1.34-.92,1.49-2.25.03-.23.05-.43.07-.62.17-1.55.22-2.07.72-3.44.35-.96.72-1.57,1.16-2.27.2-.33.41-.66.63-1.07.44-.79.83-1.51,1.22-2.22,1.87-3.43,3.22-5.9,6.03-9.33.33-.4.85-.67,1.41-.95.75-.38,1.59-.81,2.18-1.64.55-.78.75-1.89.53-2.82-.12-.48-.4-1.12-1.11-1.48-1-.52-2.06-.24-3.42.88-.4.33-.58.65-.81,1.06-.12.22-.26.46-.44.73-.94,1.33-1.78,2.45-2.6,3.54-2.45,3.27-4.39,5.85-6.42,10.73-.51,1.23-.97,1.78-1.46,1.78-.02,0-.04,0-.06,0-.72-.07-1.02-1.21-1.34-2.69-.03-.16-.07-.31-.1-.44h0c-.15-.62-.25-1.61-.35-2.49-.07-.61-.13-1.19-.19-1.5-.17-.83-.89-1.37-1.8-1.37Z"/><path class="cls-4" d="M34.39,12.49c.51-.48.91-.72,1.61-.77.81-.05,1.38,0,1.92.77.05.06,3.54-1.3,4.76-2.99,1.29-1.77,5.38.54,2.61,2.76-1.15.93-3.83,1.47-5.99,2.92-.46.31,1,10.04.23,17.25-.05.39.41,2.19.61,3.37.38,2.23-.23,3.3-1.92,3.53-1.55.21-2.61.15-3.07-2.53-.27-1.53-.61-3.68-.23-5.6,1.15-5.75-.23-13.11-.77-12.96-2.77.79-3.24,1.5-5.06,2.84-1.61,1.17-1.92,4.06-3.77,3.45-.98-.32-1.85-1.57-1.54-2.76.29-1.07,1.26-1.31,2.31-1.69,2.15-.77,2.63-2.09,4.45-3.22,1.15-.71,2.84-1.37,3-1.68.25-.5.04-1.93.85-2.69Z"/><path class="cls-1" d="M37.34,39.7c-1.18,0-2.08-.51-2.48-2.86-.22-1.27-.64-3.65-.23-5.71.62-3.1.44-6.44.29-8.15-.23-2.49-.62-4-.83-4.4-2.05.6-2.74,1.14-3.86,2.02-.28.22-.59.46-.95.73-.58.42-.98,1.1-1.38,1.76-.33.54-.63,1.06-1.03,1.41-.48.43-1.02.54-1.64.33-.56-.18-1.08-.62-1.42-1.19-.37-.62-.48-1.31-.32-1.94.31-1.13,1.27-1.47,2.21-1.8.1-.03.19-.07.29-.1,1.22-.43,1.85-1.04,2.59-1.73.51-.48,1.04-.98,1.8-1.46.51-.32,1.12-.62,1.66-.89.47-.23,1.11-.55,1.23-.68.06-.12.08-.38.11-.65.07-.65.17-1.53.79-2.11.53-.5.99-.8,1.8-.85.77-.04,1.46-.02,2.06.73.72-.25,3.39-1.44,4.39-2.82.44-.61,1.23-.87,2.09-.71.98.19,1.78.86,1.97,1.67.11.44.12,1.31-1.01,2.21-.58.47-1.48.83-2.52,1.24-1.09.44-2.33.93-3.42,1.65-.07.37.04,1.99.15,3.57.25,3.59.63,9.01.15,13.5-.02.2.17,1.11.32,1.83.11.5.21,1.01.29,1.45.23,1.33.11,2.3-.36,2.94-.38.52-.98.83-1.82.94-.32.04-.64.08-.93.08ZM34.18,17.93c.1,0,.19.04.28.11.07.07.3.28.6,1.64.19.88.36,2.01.47,3.17.17,1.76.35,5.19-.29,8.4-.36,1.8-.07,3.77.23,5.48.2,1.17.51,1.85.99,2.14.41.25.94.24,1.74.14.67-.09,1.13-.32,1.41-.7.37-.5.45-1.31.25-2.48-.07-.42-.18-.93-.29-1.43-.23-1.07-.36-1.75-.33-2.03.47-4.43.1-9.82-.15-13.39-.24-3.46-.24-3.88.06-4.08,1.16-.78,2.46-1.29,3.6-1.75.99-.4,1.85-.74,2.36-1.15.65-.52.92-1.07.8-1.59-.14-.57-.76-1.07-1.5-1.21-.3-.06-1.04-.13-1.47.46-.66.91-1.92,1.7-2.85,2.2-.86.46-1.92.91-2.14.91-.1,0-.2-.04-.26-.12h0c-.42-.61-.83-.69-1.65-.65-.62.04-.96.26-1.41.68h0c-.45.42-.53,1.15-.6,1.73-.04.35-.07.65-.18.87-.13.26-.55.48-1.5.95-.53.26-1.12.56-1.61.86-.71.44-1.22.92-1.7,1.38-.75.71-1.46,1.39-2.8,1.87-.1.04-.2.07-.29.1-.89.31-1.6.56-1.82,1.38-.27,1.01.5,2.11,1.34,2.38.14.05.26.07.38.07.61,0,1-.59,1.57-1.54.4-.68.86-1.44,1.54-1.93.35-.26.65-.49.93-.71,1.17-.92,1.94-1.52,4.23-2.17.03,0,.07-.01.1-.01Z"/></g></g></svg>