<?xml version="1.0" encoding="UTF-8"?><svg id="_Слой_2" xmlns="http://www.w3.org/2000/svg" width="90" height="25" viewBox="0 0 90 25"><defs><style>.cls-1{fill:#d81f26;stroke-width:0px;}</style></defs><g id="_Слой_2-2"><g id="netflix"><path id="netflix-2" class="cls-1" d="M12.38,23.39c-1.35.24-2.73.32-4.16.51L3.87,10.81v13.65c-1.35.15-2.59.34-3.87.54V0h3.61l4.94,14.18V0h3.82v23.39ZM19.86,9.16c1.47,0,3.73-.07,5.08-.07v3.91c-1.68,0-3.66,0-5.08.07v5.81c2.24-.15,4.46-.34,6.73-.42v3.76l-10.52.85V0h10.52v3.91h-6.73v5.25ZM40.71,3.91h-3.94v17.97c-1.29,0-2.56,0-3.8.05V3.91h-3.94V0h11.69v3.91h0ZM46.88,8.89h5.21v3.91h-5.21v8.86h-3.73V0h10.61v3.91h-6.89s0,4.98,0,4.98ZM59.95,18.24c2.16.05,4.34.22,6.46.34v3.86c-3.4-.22-6.79-.44-10.26-.51V0h3.8v18.24h0ZM69.61,22.71c1.21.07,2.5.15,3.73.29V0h-3.73v22.71ZM89.99,0l-4.82,11.89,4.82,13.11c-1.42-.2-2.85-.46-4.28-.71l-2.73-7.23-2.78,6.64c-1.37-.24-2.71-.32-4.08-.51l4.9-11.45L76.6,0h4.08l2.5,6.57L85.84,0h4.16,0Z"/></g></g></svg>