<?xml version="1.0" encoding="UTF-8"?><svg id="_Слой_2" xmlns="http://www.w3.org/2000/svg" width="50" height="50" viewBox="0 0 50 50"><defs><style>.cls-1,.cls-2{stroke-width:0px;}.cls-2{fill:#f870b2;}</style></defs><g id="pewdiepie"><g id="pewdiepie-2"><rect class="cls-1" width="49.99" height="50"/><path class="cls-2" d="M48.57,20.95c-.56.41-1.3.64-1.89,1.07-1.28.92-2.16,2.33-2.74,3.77-1.19,3.26-1.7,6.78-1.84,10.24-.03,2.36-.03,4.72,0,7.08.14,3.63-.65,7.06-5.02,6.88h-.02c-2.44.05-4.69-1.01-6.87-2-4.25-1.85-8.23-4.42-11.53-7.7-3.11-3.05-5.31-6.99-8.75-9.71-1.81-1.35-4.09-2.62-6.4-2.02-1.07.27-2.11,1.04-2.89,1.14-.88.11-.7-1.22-.22-1.89.67-1.05,2-1.61,3.26-1.69,6.79.09,12.14,9.87,16.61,14.2,3.09,2.99,6.82,5.24,10.77,6.89,4.32,1.9,9.45,2.28,9.57-3.84.13-3.07.46-6.13.65-9.2.3-4.36,1.22-9.06,4.14-12.47.62-.65,1.33-1.25,2.2-1.48.7-.22,1.8.04.97.73Z"/><path class="cls-2" d="M47.81,17.59c-1.52.49-2.67,1.32-3.64,2.6-2.63,3.56-3.93,8.2-4.66,12.51-.32,2.08-.6,4.16-1,6.22-.45,2.59-1.62,5.14-4.54,5.42h-.01c-2.49.17-5.1-1.1-7.25-2.26-4.47-2.42-7.53-6.59-10.83-10.33-3.16-3.45-6.66-6.83-11.05-8.62-.71-.29-1.42-.52-2.19-.73-.67-.21-2.25-.56-2.35-1.19.04-.39.86-.4,1.38-.36,1.68.17,3.31.85,4.79,1.63,3.28,1.81,6.22,4.31,8.85,6.95,2.82,2.91,5.39,6.21,8.49,8.83,2.32,1.96,5.08,3.66,8.18,3.8,1.27.06,2.62-.27,3.47-1.21,1-1.09,1.51-2.78,1.87-4.21.11-.45.2-.9.29-1.35.92-5.22,2.23-10.46,5.11-14.98.66-1.02,1.41-2.03,2.39-2.75.67-.48,1.45-.83,2.28-.93.46-.06.91-.03,1.17.05.1.03.2.08.27.16.22.32-.74.63-1.02.75Z"/><path class="cls-2" d="M49.24,11.21c-.02.17-.28.25-.7.23-.71-.04-1.53-.32-2.3-.39-3.68-.4-5.59,1.55-7.68,4.24-2.28,2.87-4.11,6.06-6.2,9.05-1.14,1.6-2.24,3.59-4.28,4.1-2.02.53-4.13-.33-5.9-1.29-3.02-1.61-5.87-3.5-8.7-5.41-2.02-1.35-4.04-2.67-6.16-3.87-1.63-.88-3.33-1.65-5.02-2.42-.44-.2-.87-.43-1.15-.66-.28-.21-.69-.72-.11-.83h.01c.52-.1,1.4.23,1.95.5,1.1.52,2.19,1.1,3.28,1.65,1.39.7,2.75,1.45,4.04,2.32,2.8,1.85,5.62,3.68,8.57,5.28,1.88,1,4,2,6.15,2.27,1.42.18,2.68-.13,3.76-1.03,1.18-.98,2.07-2.27,2.99-3.49,2.9-3.82,5.34-8.24,9.27-11.1,1.79-1.19,4.12-1.08,6.11-.54.67.16,1.65.63,1.96,1.09.07.09.12.19.11.3Z"/><path class="cls-2" d="M48.44,14.08c-.43.06-.91.03-1.36.02-3.06-.12-4.72,1.75-6.29,4.1-2.21,3.31-3.79,6.99-5.21,10.7-.65,1.61-1.25,3.31-2.08,4.84-3.11,5.93-8.85.75-12.1-2.22-2.62-2.51-5.32-4.92-8.19-7.13-1.06-.78-2.15-1.54-3.22-2.31-1.45-1-2.96-1.95-4.55-2.73-.9-.44-1.84-.76-2.78-1.1-.46-.18-.84-.34-1.18-.63-.04-.03-.07-.06-.1-.1-.19-.22-.15-.4.11-.48.96-.21,2.27.46,3.19.85,2.49,1.15,4.81,2.64,7.03,4.25,3.98,2.8,7.66,5.98,11.51,8.94,3.15,2.32,6.61,4.03,9.17-.05,1.24-1.96,2.16-4.07,3.15-6.15,1.02-2.22,2.17-4.36,3.52-6.4.75-1.14,1.56-2.24,2.5-3.24,1.22-1.34,2.77-2.51,4.66-2.53.7-.02,1.41.08,2.03.38.46.21,1.21.82.19.99Z"/><path class="cls-2" d="M49.29,7.68c.01.68-1.75-.11-2.1-.28-1.74-.74-3.79-1.69-5.68-1.53-2.24.23-4.07,1.85-5.47,3.51-2.73,3.17-4.98,6.73-7.72,9.88-1.3,1.52-3,2.7-5.05,2.76h-.02c-1.06.04-2.1-.21-3.11-.49-3.85-.97-7.19-3.25-10.54-5.28-1.45-.86-2.92-1.69-4.39-2.52-.79-.44-1.59-.86-2.38-1.28-.45-.23-.9-.47-1.24-.73-.84-.66-.71-1.13.34-.83.31.08.63.22.92.37,1.41.74,2.77,1.55,4.14,2.35,1.53.88,2.94,1.87,4.46,2.74,1.51.83,3.07,1.55,4.63,2.29,1.95.95,3.65,1.37,5.81,1.36,1.01,0,1.96-.01,2.86-.44,2.24-1.16,4.37-4.22,6.23-6.76,1.11-1.56,2.12-2.96,3.29-4.45,2.86-3.72,5.37-5.53,9.98-3.59,1.18.51,4.74,1.76,5.04,2.92Z"/><path class="cls-2" d="M33.35,2.67c-2.63,3.38-4.54,7.26-7.3,10.54-1.75,2.11-3.34,3.79-6.29,3.75h-.01c-3.1.06-5.89-1.42-8.54-2.87-1.65-.88-3.24-1.84-4.79-2.9-1.37-.92-2.82-1.7-4.23-2.57-.48-.3-1.58-1.06-1.34-1.52.1-.13.39-.13.79.01.39.13.85.41,1.22.66.69.46,1.37.95,2.08,1.39,3.41,2.09,6.85,4.23,10.63,5.6,2.07.68,4.87.75,6.76-.45.79-.51,1.45-1.23,2.03-1.96,1.84-2.3,3.41-4.78,4.94-7.28.78-1.22,1.49-2.56,2.46-3.66.5-.57,1.4-1.3,2.06-.86.55.51-.06,1.55-.47,2.12Z"/><path class="cls-2" d="M27.08,49.37c-.67-.15-1.35-.51-1.98-.8-2.67-1.24-5.11-2.93-7.44-4.71-.79-.63-1.52-1.31-2.27-1.98-1.31-1.13-2.68-2.29-4.05-3.36-.73-.55-1.51-1.04-2.38-1.3-2.03-.63-4.24-.04-5.58,1.67-.7.79-1.19,1.8-1.96,2.54-.4.39-1.15.66-1.29-.13v-.02c-.08-.45.06-.93.24-1.35.23-.55.55-1.07.88-1.59.45-.71.93-1.4,1.47-2.05.87-1.04,1.92-2,3.24-2.26,2.53-.4,5.17,1.94,6.85,3.63,2.74,2.79,5.55,5.54,8.77,7.77,1.74,1.13,3.6,2.05,5.41,3.04.7.4,1.41,1.17.09.9Z"/><path class="cls-2" d="M48.18,27.26c-.5.51-.92,1.08-1.24,1.71-.87,1.72-1.15,3.66-1.21,5.57-.05,3.29-.07,6.58.2,9.86.1,1.07.36,2.13.47,3.2.3,2.61-2.09,3.15-2.32.31h0c-.14-3.01-.02-6.04-.41-9.03-.22-1.68-.2-3.36.03-5.03.16-1.26.26-2.53.61-3.74.61-1.89,1.63-4.67,3.56-5.5.64-.24,1.27-.28,1.67.13.6.91-.81,1.88-1.36,2.52Z"/><path class="cls-2" d="M26.52,1.66c-.08.49-.39,1.06-.64,1.52-.76,1.35-1.49,2.71-2.36,3.98-1.39,2.07-2.99,4.46-5.62,4.91h-.02c-1.87.36-3.77-.25-5.46-1.04-1.96-.94-3.87-2.03-5.71-3.2-.69-.46-1.36-.96-2.02-1.46-1.02-.77-2.06-1.52-2.99-2.38-.36-.32-1.22-1.33-.76-1.54.36-.06.89.33,1.22.57.64.52,1.25,1.08,1.93,1.55,2.32,1.62,4.64,3.29,7.22,4.48,1.31.62,2.74,1.21,4.18,1.34,2.54.26,4.25-1.29,5.7-3.18,1.02-1.34,1.91-2.78,2.71-4.2.27-.47.54-.95.87-1.38.32-.41.66-.71,1.06-.83.52-.15.81.27.69.86Z"/><path class="cls-2" d="M20.87,49.25c-.72-.19-1.43-.59-2.11-.92-.66-.32-1.33-.63-1.98-.97-3.42-1.72-7.13-4.4-10.57-1.25-.45.4-.87.84-1.29,1.3-.67.73-2.06,2.68-3.14,2.13-.68-.63.56-2.02.97-2.59,1.6-2.19,3.26-4.55,6.27-4.48h.02c3.29.08,5.94,2.44,8.69,4.03,1,.66,2.05,1.26,3.08,1.88.68.42,1.41,1.2.06.87Z"/><path class="cls-2" d="M19.54,1.26c0,.53-.31,1.07-.6,1.52-.97,1.51-2.26,2.89-3.91,3.46-.36.12-.74.19-1.11.2h-.02c-.48.01-.96-.09-1.42-.25-.74-.26-1.46-.59-2.18-.92-1.75-.88-3.46-1.97-4.88-3.34-.29-.3-.63-.94-.16-1.13.18-.06.46-.01.74.12,2.76,1.6,5.82,4.49,8.95,2.81.7-.37,1.26-.95,1.81-1.51.61-.57,1.39-1.69,2.27-1.63.33.04.51.31.51.67Z"/><path class="cls-2" d="M49.78,48.19c-.05.46-.21,1.42-.73,1.16-.19-.12-.4-.46-.55-.93-.27-.83-.32-1.84-.38-2.74-.05-.99-.07-1.99-.16-2.98-.12-1.42-.41-2.84-.43-4.27-.01-.71.05-1.41.14-2.12.17-1.12.31-2.35.81-3.36.56-1.09,1.16-.73,1.28.46v.02c.16,1.85-.4,3.74-.54,5.59-.17,1.99.4,3.96.51,5.95.06,1.05.14,2.19.05,3.22Z"/><path class="cls-2" d="M49.8,5.57c-.32.27-.84.13-1.21-.07-2.02-1.13-3.99-2.34-5.96-3.56-.46-.3-1.15-.7-1.17-1.29.03-.42.45-.62.89-.65h.02c1.49.01,3.04,1.48,4.33,2.31.6.41,1.19.79,1.79,1.21.49.37,1.18.74,1.45,1.31.12.27.07.58-.14.74Z"/><path class="cls-2" d="M49.79,1.76h0c-.19,1.01-1.31.49-1.9-.01-.31-.26-.71-.6-.66-1.04.08-.42.58-.55.99-.5.69.1,1.61.81,1.57,1.55Z"/><path class="cls-2" d="M12.81,49.55c-.19.24-.51.27-.84.28h-.01c-.41-.01-1.76.03-1.65-.59.2-.39.82-.33,1.31-.34.46.03.87.02,1.16.29.09.1.12.24.03.36Z"/></g></g></svg>