<?xml version="1.0" encoding="UTF-8"?><svg id="_Слой_2" xmlns="http://www.w3.org/2000/svg" width="50" height="50" viewBox="0 0 50 50"><defs><style>.cls-1,.cls-2{stroke-width:0px;}.cls-2{fill:#fff;}</style></defs><g id="picky_picks"><g id="picky_picks-2"><path class="cls-1" d="M.06,0h49.94v49.94h-24.07c13.34-.54,23.74-11.44,23.98-24.5C50.14,12.73,40.63,1.55,27.52.21c-1.21-.12-2.44-.15-3.65-.1-1.21.05-2.43.2-3.63.43-1.18.23-2.36.55-3.5.95-1.15.4-2.27.89-3.35,1.45-1.08.56-2.12,1.22-3.1,1.93-.98.72-1.92,1.51-2.78,2.36-.87.85-1.68,1.77-2.41,2.74-.73.97-1.4,2-1.99,3.06-.58,1.06-1.08,2.17-1.5,3.3-.42,1.14-.76,2.32-1.02,3.5-.26,1.17-.38,2.38-.54,3.43V0Z"/><path class="cls-2" d="M.06,0v23.27c.16-1.06.28-2.26.54-3.43.26-1.19.6-2.37,1.02-3.5.42-1.13.92-2.24,1.5-3.3.58-1.06,1.25-2.09,1.99-3.06.73-.97,1.54-1.89,2.41-2.74.87-.85,1.8-1.64,2.78-2.36.98-.72,2.02-1.37,3.1-1.93,1.08-.57,2.2-1.05,3.35-1.45,1.14-.4,2.31-.72,3.5-.95,1.19-.23,2.41-.37,3.63-.43,1.21-.05,2.44-.03,3.65.1,13.11,1.34,22.62,12.52,22.39,25.24-.24,13.06-10.63,23.96-23.98,24.5h24.07s-.02.05-.03.05c-.07,0-.15,0-.22,0H0C0,33.42,0,16.83,0,.25c0-.08.03-.17.05-.25ZM7.41,40.43c.08.08.13.12.18.16.71.7,1.4,1.42,2.14,2.08,2.15,1.9,4.6,3.3,7.29,4.28,2.24.81,4.55,1.26,6.93,1.36,3.15.13,6.21-.34,9.16-1.43,2.63-.98,5.01-2.39,7.14-4.23,2.94-2.56,5.13-5.65,6.52-9.29,1.28-3.34,1.75-6.8,1.45-10.37-.15-1.8-.5-3.55-1.06-5.26-1.28-3.88-3.43-7.2-6.44-9.97-2.5-2.29-5.37-3.97-8.6-5-3.27-1.05-6.61-1.35-10.02-.94-2.39.29-4.67.93-6.85,1.94-4.71,2.18-8.33,5.56-10.81,10.12-2.45,4.49-3.26,9.29-2.6,14.34.37,2.79,1.25,5.43,2.6,7.91.06.11.1.26.09.39-.04.51-.1,1.01-.16,1.52-.03.26-.07.51-.1.76C1.76,35.07.37,30.99.07,26.53v23.4h23.72c-.8-.09-1.71-.15-2.62-.29-2.86-.43-5.56-1.34-8.1-2.73-2.11-1.15-4.03-2.57-5.72-4.29-.08-.08-.16-.22-.15-.33.05-.61.12-1.21.2-1.87Z"/><path class="cls-1" d="M7.41,40.43c-.07.66-.15,1.27-.2,1.87,0,.11.07.24.15.33,1.69,1.72,3.61,3.14,5.72,4.29,2.54,1.38,5.24,2.29,8.1,2.73.9.14,1.82.2,2.62.29H.07v-23.4c.3,4.46,1.68,8.54,4.2,12.27.03-.25.07-.51.1-.76.06-.5.12-1.01.16-1.52.01-.13-.03-.28-.09-.39-1.35-2.48-2.23-5.12-2.6-7.91-.66-5.05.16-9.85,2.6-14.34,2.48-4.56,6.1-7.93,10.81-10.12,2.18-1.01,4.47-1.65,6.85-1.94,3.41-.41,6.75-.11,10.02.94,3.23,1.04,6.1,2.71,8.6,5,3.01,2.76,5.16,6.09,6.44,9.97.56,1.71.91,3.46,1.06,5.26.29,3.57-.17,7.03-1.45,10.37-1.4,3.64-3.58,6.74-6.52,9.29-2.12,1.84-4.5,3.25-7.14,4.23-2.96,1.1-6.01,1.57-9.16,1.43-2.38-.1-4.69-.55-6.93-1.36-2.69-.98-5.14-2.39-7.29-4.28-.75-.66-1.43-1.39-2.14-2.08-.04-.04-.09-.08-.18-.16ZM20.62,15.25c-.54-.19-1.46,0-1.96.36-.18.13-.29.29-.31.53-.12,1.29-.25,2.57-.37,3.86-.04.43-.09.87-.09,1.3,0,.95.58,1.59,1.5,1.66,1,.08,1.83-.27,2.47-1.05.14-.17.27-.36.42-.55.74.85,1.66,1.17,2.73,1.04,1.13-.13,2.13-.6,3.01-1.3.3-.24.57-.51.89-.79-.05.55-.09,1.06-.14,1.59.69-.07,1.34-.14,1.99-.22.05,0,.12-.11.13-.17.1-.94.19-1.87.29-2.81.08-.73.12-1.46.26-2.17.17-.89.89-1.45,1.68-1.39.35.03.64.23.66.56.02.33.01.7-.12.99-.28.66-.87,1.04-1.51,1.31-.17.07-.24.15-.19.32.16.55.27,1.12.5,1.64.58,1.3,1.8,1.76,3.11,1.18.49-.21.93-.54,1.38-.8.21.13.45.31.72.42.27.11.57.14.88.21-.06.07-.11.14-.17.2-.49.6-.89,1.25-1,2.03-.16,1.11.4,2.01,1.39,2.23,1.12.25,2.38-.25,3.01-1.2.54-.82.75-1.73.84-2.69.05-.56.12-1.11.18-1.68,1.18.28,1.52,1.19,1.77,2.23.25-.38.6-.67.55-1.09-.07-.6-.3-1.16-.74-1.61-.4-.41-.9-.6-1.49-.66.11-1,.22-1.98.32-2.96.1-.99.2-1.98.31-2.96-.71-.15-1.3-.05-1.84.31-.27.17-.41.4-.44.72-.12,1.39-.28,2.78-.37,4.17-.04.63-.39,1-.92,1.19-.7.26-1.25.07-1.22-.82,0-.08,0-.17,0-.25.1-.93.21-1.85.31-2.78.05-.46.11-.92.13-1.38.02-.48-.26-.77-.75-.75-.27,0-.54.03-.79.1-.59.14-.58.15-.62.75,0,.06-.01.11-.02.16-.14,1.45-.3,2.9-.42,4.36-.03.45-.23.77-.56,1.02-.68.52-1.32.33-1.63-.46-.06-.16-.11-.33-.15-.5-.12-.5-.11-.5.31-.78.9-.61,1.52-1.39,1.47-2.56-.03-.75-.43-1.33-1.16-1.54-.91-.26-1.77-.09-2.58.37-.23.13-.44.31-.67.48.08-.62.16-1.2.22-1.79.09-.85.18-1.71.25-2.56.03-.4-.15-.69-.51-.7-.48-.01-.97.06-1.45.13-.08.01-.19.17-.2.27-.07.65-.12,1.31-.18,1.96-.16,1.72-.34,3.44-.49,5.16-.12,1.39-.15,1.51-1.02,2.36-.58.57-1.21,1.06-1.99,1.32-1.21.4-2.11-.05-2.37-1.25-.24-1.12-.08-2.2.67-3.11.19-.24.49-.43.78-.54.59-.23,1.06.11,1.09.74.01.18,0,.37-.03.55-.04.27-.09.54-.15.83.51-.03.92-.23,1.29-.51.54-.41.84-.94.7-1.64-.14-.67-.62-1.06-1.25-1.18-.52-.1-1.07-.13-1.59-.06-2.06.3-4.31,2.45-3.72,5.46.02.1.06.22.02.3-.16.37-.37.71-.73.92-.53.3-.92.07-.93-.52,0-.09,0-.19,0-.28.1-.89.2-1.78.3-2.67.09-.84.19-1.69.28-2.54ZM36.67,26.63c.07-.24.17-.48.22-.72.24-1.12-.57-1.87-1.68-1.57-1.1.3-1.66,1.53-1.11,2.45.1.16.23.3.36.47-.04.05-.08.1-.12.15-.45.49-.91.97-1.34,1.48-.77.92-1.56,1.84-1.79,3.07-.55.16-.82.08-1.06-.41-.19-.4-.3-.84-.44-1.25.1-.06.14-.08.18-.1.81-.5,1.5-1.11,1.72-2.1.25-1.13-.35-2.11-1.41-2.26-1.02-.15-1.94.11-2.74.77-.06.05-.12.09-.22.17.24-1.6.47-3.15.71-4.78-.16.09-.24.14-.32.18-.58.25-1.15.5-1.73.72-.21.08-.33.15-.32.39,0,.17-.03.35-.05.52-.22,1.94-.47,3.87-.65,5.81-.07.72-.28,1.32-.83,1.79-.17.14-.31.32-.48.46-.63.54-1.3,1.01-2.14,1.15-.84.14-1.54-.19-1.8-.98-.43-1.26-.26-2.47.58-3.53.16-.21.41-.4.66-.48.7-.24,1.19.04,1.18.78,0,.34-.08.68-.12,1.01-.01.1-.04.19-.06.31.7-.09,1.25-.39,1.68-.9.64-.76.41-1.85-.49-2.29-.77-.38-1.58-.35-2.38-.15-2.36.59-3.86,3.01-3.37,5.39.02.11.06.25.01.32-.21.3-.42.6-.68.86-.19.19-.47.22-.73.09-.24-.12-.24-.37-.23-.58.02-.42.08-.85.12-1.27.15-1.36.3-2.72.45-4.08.02-.14-.02-.2-.17-.22-.63-.05-1.22.06-1.75.41-.2.13-.32.31-.34.57-.07.89-.18,1.78-.25,2.68-.07.89-.16,1.79-.18,2.68-.01.66.46,1.22,1.09,1.37.83.2,1.63.07,2.31-.47.36-.29.65-.66.99-1.01-.03,0-.02,0-.01,0,.03.02.05.05.08.07.7.72,1.56,1.03,2.56.93,1.4-.15,2.57-.77,3.58-1.72.12-.11.24-.23.41-.4-.05.59-.1,1.09-.15,1.63.69-.07,1.34-.14,1.99-.21.05,0,.12-.11.12-.17.15-1.45.3-2.9.44-4.36.04-.43.12-.84.34-1.21.32-.53.77-.84,1.41-.8.41.02.62.22.7.62.14.73-.2,1.26-.72,1.69-.33.27-.73.46-1.13.71.1.75.31,1.52.74,2.22.36.57.88.95,1.55.98.49.02.98-.1,1.5-.16.32.66.89,1.14,1.7,1.23.78.08,1.49-.14,2.11-.63-.12-.07-.24-.09-.35-.11-.48-.11-.96-.23-1.3-.62-.48-.54-.59-1.38-.14-2.04.73-1.07,1.54-2.09,2.3-3.12.72.26,1.6.8,1.93,1.17.46.52.46,1.29,0,1.79-.32.34-.9.45-1.3.24-.39-.21-.53-.62-.38-1.13.05-.18.14-.35.22-.57-.47.12-.84.32-1.16.65-.72.74-.58,1.87.32,2.38.2.12.44.21.67.23,1.2.15,2.27-.17,3.2-.93.6-.49.96-1.12,1.02-1.9.1-1.21-.53-1.98-1.54-2.49-.64-.32-1.32-.56-2-.84ZM6.64,41.87s.04-.03.07-.04c.1-.99.19-1.98.29-2.98.1-1,.21-2,.31-2.96.56-.06,1.1-.08,1.62-.18,2.65-.49,4.42-3.28,3.71-5.84-.31-1.12-1.37-2.32-3.04-1.98-.56.11-1.07.32-1.46.61-.24-.12-.43-.3-.62-.31-.43-.01-.86.05-1.29.1-.21.02-.3.15-.32.37-.15,1.59-.3,3.18-.46,4.77-.18,1.85-.35,3.7-.55,5.54-.06.53-.01.98.39,1.35.11.11.2.24.3.36.35.39.7.78,1.04,1.16ZM11.68,23.71c.08,0,.14,0,.19,0,1.5.05,2.83-.36,3.91-1.44.8-.8,1.16-1.8,1.3-2.9.12-.96.03-1.86-.59-2.65-.59-.74-1.34-1.1-2.3-.97-.64.08-1.21.3-1.64.61-.33-.12-.58-.29-.84-.3-.37-.02-.75.08-1.12.13-.21.03-.28.15-.3.36-.09,1.03-.19,2.06-.28,3.09-.2,2.1-.4,4.19-.6,6.29-.04.45-.08.89-.12,1.38.7-.14,1.36-.16,2.04.12.12-1.26.24-2.48.36-3.71ZM20.97,13.18c0-.67-.5-1.19-1.15-1.19-.74,0-1.38.63-1.38,1.38,0,.66.49,1.17,1.14,1.18.75,0,1.39-.63,1.4-1.36ZM16.59,25.29c0-.66-.51-1.18-1.14-1.18-.76,0-1.38.64-1.38,1.41,0,.66.51,1.17,1.15,1.16.74-.01,1.37-.65,1.37-1.39Z"/><path class="cls-2" d="M20.62,15.25c-.09.86-.19,1.7-.28,2.54-.1.89-.2,1.78-.3,2.67-.01.09,0,.18,0,.28.01.6.4.82.93.52.36-.2.57-.55.73-.92.04-.08,0-.2-.02-.3-.59-3.01,1.66-5.16,3.72-5.46.52-.08,1.07-.04,1.59.06.64.12,1.12.51,1.25,1.18.14.69-.16,1.22-.7,1.64-.37.28-.78.48-1.29.51.05-.3.11-.56.15-.83.03-.18.04-.37.03-.55-.04-.63-.5-.97-1.09-.74-.29.11-.58.31-.78.54-.75.91-.91,1.99-.67,3.11.26,1.2,1.16,1.65,2.37,1.25.78-.26,1.41-.75,1.99-1.32.87-.86.9-.97,1.02-2.36.15-1.72.33-3.44.49-5.16.06-.65.11-1.31.18-1.96.01-.1.12-.26.2-.27.48-.07.97-.14,1.45-.13.35,0,.54.3.51.7-.07.86-.16,1.71-.25,2.56-.06.59-.14,1.17-.22,1.79.24-.17.44-.35.67-.48.81-.46,1.67-.64,2.58-.37.73.21,1.13.79,1.16,1.54.05,1.17-.57,1.94-1.47,2.56-.42.29-.43.28-.31.78.04.17.09.34.15.5.31.79.95.97,1.63.46.33-.25.53-.57.56-1.02.11-1.45.27-2.91.42-4.36,0-.06.01-.11.02-.16.04-.6.03-.61.62-.75.26-.06.53-.09.79-.1.48-.01.77.27.75.75-.02.46-.08.92-.13,1.38-.1.93-.21,1.85-.31,2.78,0,.08,0,.17,0,.25-.03.89.52,1.08,1.22.82.52-.19.87-.56.92-1.19.1-1.39.25-2.78.37-4.17.03-.32.17-.55.44-.72.55-.36,1.13-.46,1.84-.31-.1.98-.2,1.97-.31,2.96-.1.98-.21,1.96-.32,2.96.59.06,1.09.25,1.49.66.44.45.67,1.01.74,1.61.05.42-.31.71-.55,1.09-.25-1.04-.6-1.95-1.77-2.23-.06.57-.13,1.13-.18,1.68-.08.96-.29,1.88-.84,2.69-.63.95-1.9,1.45-3.01,1.2-.99-.23-1.55-1.12-1.39-2.23.11-.79.51-1.44,1-2.03.05-.06.11-.13.17-.2-.3-.07-.6-.1-.88-.21-.27-.11-.51-.29-.72-.42-.45.26-.89.58-1.38.8-1.31.58-2.52.12-3.11-1.18-.23-.52-.34-1.09-.5-1.64-.05-.18.02-.25.19-.32.65-.27,1.23-.64,1.51-1.31.13-.3.14-.66.12-.99-.02-.33-.31-.53-.66-.56-.78-.07-1.51.49-1.68,1.39-.14.71-.18,1.45-.26,2.17-.1.94-.19,1.87-.29,2.81,0,.06-.08.16-.13.17-.65.08-1.3.14-1.99.22.05-.54.09-1.04.14-1.59-.32.29-.59.56-.89.79-.89.7-1.88,1.17-3.01,1.3-1.07.12-1.99-.2-2.73-1.04-.15.19-.28.38-.42.55-.64.78-1.47,1.12-2.47,1.05-.92-.07-1.51-.71-1.5-1.66,0-.43.05-.87.09-1.3.12-1.29.25-2.57.37-3.86.02-.23.13-.39.31-.53.5-.37,1.42-.55,1.96-.36ZM40.68,20.55s-.07-.03-.1-.04c-.67.43-1.28.92-1.69,1.62-.21.36-.3.75-.28,1.16.03.5.33.77.83.76.43-.01.73-.2.82-.68.17-.94.29-1.89.42-2.83Z"/><path class="cls-2" d="M36.67,26.63c.68.28,1.36.52,2,.84,1.01.5,1.64,1.28,1.54,2.49-.06.78-.42,1.41-1.02,1.9-.93.76-2.01,1.08-3.2.93-.23-.03-.47-.12-.67-.23-.9-.51-1.04-1.64-.32-2.38.32-.32.69-.53,1.16-.65-.09.22-.17.39-.22.57-.15.52,0,.92.38,1.13.4.21.98.11,1.3-.24.46-.5.46-1.27,0-1.79-.33-.37-1.22-.91-1.93-1.17-.76,1.03-1.57,2.04-2.3,3.12-.45.66-.34,1.5.14,2.04.34.39.82.51,1.3.62.11.03.23.04.35.11-.62.49-1.34.72-2.11.63-.81-.09-1.39-.56-1.7-1.23-.52.06-1.01.18-1.5.16-.68-.03-1.19-.41-1.55-.98-.44-.69-.64-1.46-.74-2.22.4-.25.8-.44,1.13-.71.52-.43.87-.96.72-1.69-.08-.4-.3-.59-.7-.62-.64-.04-1.09.27-1.41.8-.23.38-.3.79-.34,1.21-.14,1.45-.29,2.9-.44,4.36,0,.06-.08.16-.12.17-.65.08-1.3.14-1.99.21.05-.54.1-1.04.15-1.63-.17.17-.29.29-.41.4-1.01.95-2.18,1.57-3.58,1.72-1,.11-1.86-.2-2.56-.93-.03-.03-.05-.05-.08-.07,0,0-.02,0,.01,0-.34.35-.63.73-.99,1.01-.68.54-1.47.67-2.31.47-.63-.15-1.11-.71-1.09-1.37.02-.89.1-1.79.18-2.68.07-.89.18-1.78.25-2.68.02-.26.13-.44.34-.57.53-.34,1.12-.46,1.75-.41.15.01.18.08.17.22-.15,1.36-.3,2.72-.45,4.08-.05.42-.1.84-.12,1.27,0,.21,0,.47.23.58.26.12.54.09.73-.09.26-.25.47-.56.68-.86.05-.07.01-.21-.01-.32-.49-2.39,1.01-4.81,3.37-5.39.8-.2,1.61-.23,2.38.15.89.45,1.12,1.53.49,2.29-.43.51-.97.8-1.68.9.02-.12.05-.22.06-.31.04-.34.12-.68.12-1.01.01-.74-.48-1.02-1.18-.78-.25.08-.49.27-.66.48-.84,1.06-1.01,2.27-.58,3.53.26.79.97,1.12,1.8.98.85-.14,1.51-.61,2.14-1.15.17-.14.31-.32.48-.46.55-.47.76-1.07.83-1.79.18-1.94.43-3.87.65-5.81.02-.17.06-.35.05-.52,0-.24.11-.31.32-.39.59-.22,1.16-.48,1.73-.72.08-.04.16-.09.32-.18-.24,1.62-.47,3.17-.71,4.78.1-.07.16-.12.22-.17.8-.66,1.72-.92,2.74-.77,1.07.15,1.67,1.13,1.41,2.26-.22.99-.91,1.6-1.72,2.1-.04.02-.08.05-.18.1.14.41.25.85.44,1.25.24.5.51.57,1.06.41.23-1.23,1.01-2.15,1.79-3.07.43-.51.89-.99,1.34-1.48.04-.05.08-.1.12-.15-.13-.16-.26-.3-.36-.47-.55-.92.01-2.15,1.11-2.45,1.11-.3,1.91.44,1.68,1.57-.05.25-.15.49-.22.72ZM35.49,26.16c.11-.15.24-.28.28-.42.04-.14.02-.33-.05-.46-.04-.07-.27-.1-.36-.05-.11.07-.2.22-.23.36-.05.26.12.42.36.57Z"/><path class="cls-2" d="M6.64,41.87c-.35-.39-.7-.77-1.04-1.16-.1-.12-.19-.26-.3-.36-.41-.38-.45-.82-.39-1.35.21-1.84.37-3.69.55-5.54.16-1.59.31-3.18.46-4.77.02-.22.11-.35.32-.37.43-.05.86-.11,1.29-.1.19,0,.38.18.62.31.39-.29.91-.5,1.46-.61,1.67-.34,2.74.86,3.04,1.98.7,2.56-1.07,5.35-3.71,5.84-.52.1-1.06.12-1.62.18-.1.96-.21,1.96-.31,2.96-.1.99-.2,1.98-.29,2.98-.02.01-.04.03-.07.04ZM10.52,31.34s.05-.01.07-.02c-.1-.42-.15-.85-.3-1.25-.2-.53-.62-.72-1.18-.62-.65.12-1.2.79-1.29,1.56-.09.81-.18,1.61-.28,2.42-.05.46.17.78.63.89.59.14,1.24-.13,1.64-.68.5-.69.66-1.47.69-2.3Z"/><path class="cls-2" d="M11.68,23.71c-.12,1.23-.24,2.45-.36,3.71-.68-.27-1.34-.26-2.04-.12.04-.49.08-.94.12-1.38.2-2.1.4-4.19.6-6.29.1-1.03.2-2.06.28-3.09.02-.21.09-.33.3-.36.37-.05.75-.14,1.12-.13.26.01.52.18.84.3.43-.31,1.01-.53,1.64-.61.97-.13,1.71.23,2.3.97.63.79.72,1.69.59,2.65-.14,1.1-.5,2.1-1.3,2.9-1.08,1.08-2.41,1.49-3.91,1.44-.05,0-.11,0-.19,0ZM14.89,19.14c.02-.46-.04-.9-.27-1.31-.2-.35-.48-.54-.9-.53-.49,0-.84.23-1.12.61-.28.37-.39.8-.43,1.26-.06.69-.15,1.37-.23,2.06-.06.57.17.91.65.97.59.08,1.1-.1,1.49-.56.61-.72.79-1.59.81-2.5Z"/><path class="cls-2" d="M20.97,13.18c0,.74-.65,1.37-1.4,1.36-.65,0-1.14-.51-1.14-1.18,0-.74.64-1.38,1.38-1.38.65,0,1.16.53,1.15,1.19Z"/><path class="cls-2" d="M16.59,25.29c0,.74-.62,1.38-1.37,1.39-.64.01-1.14-.5-1.15-1.16,0-.76.61-1.4,1.38-1.41.63,0,1.14.51,1.14,1.18Z"/><path class="cls-1" d="M40.68,20.55c-.14.94-.25,1.89-.42,2.83-.09.48-.38.67-.82.68-.49.01-.79-.26-.83-.76-.03-.42.06-.81.28-1.16.41-.7,1.02-1.19,1.69-1.62.03.01.07.03.1.04Z"/><path class="cls-1" d="M35.49,26.16c-.24-.15-.41-.32-.36-.57.03-.13.12-.29.23-.36.09-.05.32-.02.36.05.07.12.09.31.05.46-.04.15-.18.27-.28.42Z"/><path class="cls-1" d="M10.52,31.34c-.03.83-.2,1.61-.69,2.3-.4.55-1.05.82-1.64.68-.46-.11-.69-.42-.63-.89.09-.81.19-1.61.28-2.42.09-.77.64-1.44,1.29-1.56.56-.1.98.09,1.18.62.15.4.2.83.3,1.25-.02,0-.05.01-.07.02Z"/><path class="cls-1" d="M14.89,19.14c-.02.91-.2,1.78-.81,2.5-.39.46-.89.63-1.49.56-.49-.06-.72-.41-.65-.97.08-.69.17-1.37.23-2.06.04-.46.15-.89.43-1.26.28-.37.64-.6,1.12-.61.42,0,.7.18.9.53.23.41.29.85.27,1.31Z"/></g></g></svg>