<?xml version="1.0" encoding="UTF-8"?><svg id="_Слой_2" xmlns="http://www.w3.org/2000/svg" width="90" height="15" viewBox="0 0 90 15"><defs><style>.cls-1{stroke-width:0px;}</style></defs><g id="_Слой_2-2"><g id="pixar"><g id="pixar-2"><path class="cls-1" d="M75.03.49c-.02-.13-.04-.26-.06-.42h.98c2.2.02,4.41,0,6.61.07.82.02,1.66.17,2.47.35.47.1.93.34,1.32.6.93.64,1.18,1.71.71,2.77-.5,1.12-1.35,1.95-2.4,2.62-.1.06-.2.12-.33.2.83,1.41,1.74,2.75,2.71,4.06.97,1.31,1.99,2.59,2.98,3.87-.42.1-.89.23-1.33-.17-1.03-.95-2.1-1.86-3.09-2.85-1.27-1.27-2.46-2.6-3.69-3.89-.06-.07-.16-.13-.25-.13-.62.03-1.24.08-1.89.12,0,.49,0,.96,0,1.43.03,1.36.06,2.73.08,4.09,0,.2.06.31.3.33.54.05,1.08.15,1.62.19.31.02.4.14.38.41h-7.1c-.04-.35-.03-.37.33-.4.52-.05,1.04-.13,1.55-.18.3-.02.4-.14.4-.43,0-1.44.06-2.88.06-4.33,0-2.56-.04-5.12-.06-7.67,0-.3-.08-.44-.43-.46-.62-.04-1.24-.12-1.87-.19h.02ZM79.74,7.04c1.01,0,1.95-.1,2.83-.48.87-.37,1.52-.95,1.89-1.79.57-1.28.26-2.5-.85-3.25-1.11-.76-2.4-.89-3.78-.91-.03,2.15-.06,4.27-.09,6.42h0Z"/><path class="cls-1" d="M42,5.9c2.23,3,4.42,5.95,6.63,8.93-.25.06-.5.14-.76.17-.09.01-.22-.07-.31-.13-1.42-1.06-2.66-2.31-3.83-3.61-1.08-1.19-2.13-2.42-3.23-3.67-1.42,1.88-2.7,3.83-3.87,5.9.51.08.97.19,1.44.22.33.03.4.17.36.43h-5.38c.03-.23.09-.43.41-.43,1.03,0,1.6-.67,2.15-1.34,1.43-1.75,2.84-3.51,4.26-5.27.05-.07.07-.22.03-.28-1.4-1.79-2.83-3.56-4.22-5.37-.43-.57-.94-.92-1.68-.94-.31-.01-.42-.16-.38-.44h6.51c0,.24-.08.4-.4.42-.48.04-.95.13-1.5.22,1.04,1.6,2.13,3.1,3.32,4.64,1.1-1.55,2.17-3.04,3.24-4.54-.02-.04-.04-.07-.06-.1-.37-.07-.74-.16-1.11-.2-.3-.04-.47-.13-.42-.44h4.85c.07.35.06.41-.32.44-.79.08-1.36.45-1.86,1.03-1.27,1.46-2.59,2.9-3.9,4.36h.01Z"/><path class="cls-1" d="M59.68.7c-.57-.08-1.09-.17-1.65-.25-.01-.11-.03-.23-.04-.37h6.3c.04.36.04.35-.34.41-.42.06-.83.13-1.28.21.11.34.21.65.32.95,1.21,3.41,2.45,6.8,3.93,10.12.23.52.48,1.03.75,1.53.05.1.19.19.31.22.43.08.87.16,1.31.2.33.02.41.17.36.43h-7c-.01-.25.06-.39.4-.41.59-.04,1.17-.14,1.81-.22-.08-.23-.14-.43-.21-.62-.6-1.63-1.21-3.25-1.81-4.88-.11-.29-.25-.4-.59-.37-1.38.09-2.77.16-4.15.23-.16,0-.31.02-.37.22-.45,1.74-.92,3.47-1.37,5.21-.01.05-.01.11-.03.22.6.09,1.18.18,1.8.28.03.11.05.24.08.36h-5.57c-.04-.35-.03-.35.33-.41.4-.06.79-.14,1.19-.19.25-.02.37-.14.46-.34.54-1.27,1.11-2.53,1.64-3.82,1.13-2.79,2.23-5.59,3.34-8.38.04-.09.06-.18.12-.32h0ZM60.32,1.03c-.76,1.99-1.5,3.93-2.27,5.94h4.42c-.71-1.96-1.42-3.93-2.15-5.94h0Z"/><path class="cls-1" d="M.01.01C1.53.01,3.04-.02,4.55.02c1.25.03,2.49.1,3.73.23.62.07,1.25.26,1.81.51,1.45.65,1.97,1.75,1.61,3.23-.28,1.18-1,2.07-2.01,2.77-1.11.77-2.37,1.19-3.71,1.43-.1-.39-.04-.47.32-.58,2.76-.82,3.27-3.02,2.88-4.66-.25-1.03-.94-1.72-2-2.05-.74-.23-1.51-.3-2.33-.28-.02.44-.06.87-.06,1.3,0,3.73.03,7.46.03,11.2,0,.3.1.41.42.43.65.04,1.3.14,1.95.19.31.02.43.13.4.41H.01c-.01-.22-.01-.4.33-.42.54-.04,1.08-.14,1.62-.19.3-.02.35-.14.36-.4.02-1.62.07-3.25.07-4.87,0-2.36-.04-4.72-.07-7.07,0-.51-.01-.51-.53-.58-.47-.06-.94-.13-1.41-.14C.05.48-.04.34.01.01Z"/><path class="cls-1" d="M23.16,1.15c-.29-.2-.55-.37-.81-.55-.09.06-.18.11-.28.17-.02-.22.24-.68.41-.68.16,0,.34.13.46.25.16.16.28.36.43.56.22-.23.46-.48.7-.73.11-.12.23-.15.35-.02.49.55,1.16.77,1.88.88.86.13,1.73.2,2.56.51.68.26,1.23.68,1.69,1.21.28.32.29.44,0,.73-1.2,1.16-2.41,2.32-3.63,3.47-.47.43-.98.82-1.46,1.24-.21.19-.38.13-.58-.02-1.03-.79-1.51-1.82-1.55-3.06-.04-.95-.38-1.81-1.11-2.49-.16-.15-.15-.25,0-.4.33-.34.63-.69.97-1.06h-.01ZM24.93,1.58c0-.28-.44-.69-.72-.74-.02.02-.04.04-.06.06.25.21.5.43.79.68ZM24.57,1.81s.08-.07.11-.11c-.25-.23-.5-.46-.75-.69-.03.02-.05.05-.08.07.24.24.47.49.71.73ZM23.92,2.41c.04-.24-.33-.64-.62-.71.23.26.42.49.62.71ZM23.75,2.6c-.22-.22-.42-.43-.63-.64.07.34.42.67.63.64ZM23.69,1.39s-.05.04-.08.07c.21.22.42.43.62.65.04-.03.07-.07.11-.1-.22-.2-.43-.41-.65-.62ZM22.85,2.26s-.05.05-.08.07c.2.22.4.43.6.65.04-.03.07-.06.11-.1-.21-.21-.43-.42-.64-.62h0Z"/><path class="cls-1" d="M21.05,11.88c.32.07.67.14,1.03.2.82.16,1.64.28,2.45.46.5.11.94.33,1.16.83.03.07.16.1.19.17.06.13.13.28.11.41-.01.07-.21.17-.32.17-2.72.02-5.43.04-8.15.05-.59,0-1.16.01-1.75-.01-.3-.01-.37-.2-.21-.45.07-.11.13-.23.16-.35.13-.4.43-.64.81-.74.61-.16,1.23-.26,1.86-.37.47-.08.95-.13,1.43-.22.15-.02.29-.11.47-.18-.24-.19-.28-.32-.02-.49.09-.06.08-.29.13-.5-.31,0-.55.02-.8,0-.14-.01-.31-.05-.4-.14-.77-.81-1.52-1.63-2.27-2.45-.04-.04-.05-.1-.07-.14.41-.31.66-.32.94.04.38.47.72.98,1.08,1.48.02.02.03.05.04.08.28.47.28.47.82.31.21-.06.42-.12.67-.19-.48-.51-.95-1-1.41-1.5-.15-.16-.29-.34-.43-.52-.09-.12-.06-.2.1-.26.35-.13.66-.06.89.21.47.57.95,1.13,1.42,1.71.09.11.15.16.31.14.1-.01.27.08.32.17.16.31.3.64.42.97.06.17-.04.23-.2.22-.3-.02-.6-.04-.92-.07,0,.22-.09.41.18.53.04.02-.03.24-.06.44h0Z"/><path class="cls-1" d="M16.31,8.25c-.25-.13-.32-.31-.23-.55.19-.5.37-1.01.54-1.52.04-.13.05-.29.12-.41.07-.11.18-.24.3-.27,1.44-.33,2.88-.64,4.32-.95.16-.04.33,0,.57,0-.2.26-.37.43-.64.5-.76.2-1.52.41-2.32.63.38.27.74.54,1.11.79.07.05.21.02.31,0,.29-.04.58-.1.89-.14.43-.85.89-1.74,1.36-2.65.33.21.43.45.3.71-.31.64-.63,1.28-.99,1.9-.08.14-.33.2-.5.29-.25.13-.49.28-.76.36-.54.17-1.1.29-1.65.43-.82.2-1.65.4-2.47.62-.09.02-.16.15-.26.25v.02ZM19.36,6.76c-.35-.26-.64-.46-.92-.67-.25-.19-.81-.21-1.04-.01-.02.02-.05.04-.05.07,0,.36-.13.73.06,1.12.64-.16,1.25-.32,1.95-.49h0Z"/></g></g></g></svg>