<?xml version="1.0" encoding="UTF-8"?><svg id="_Слой_2" xmlns="http://www.w3.org/2000/svg" width="40" height="50" viewBox="0 0 40 50"><defs><style>.cls-1,.cls-2{fill-rule:evenodd;stroke-width:0px;}.cls-2{fill:#fff;}</style></defs><g id="_Слой_1-2"><g id="sony_music"><path class="cls-1" d="M0,0v50h40V0H0Z"/><path class="cls-2" d="M1.18,1.17v37.09h37.65V1.17H1.18ZM34.75,44.14l1.36-1.5c.06-.08.09-.14.09-.19,0-.08-.07-.25-.3-.25h-1.02v-.47s3.45,0,3.45,0v.47h-.54c-.44,0-.57.1-1.01.67l-2.01,2.2v1.49c0,.28.14.38.56.38h1.02v.49h-4.73v-.49h.78c.41,0,.55-.1.55-.38v-1.46l-2.4-2.46c-.33-.38-.28-.44-1.2-.44v-.47h4.22v.47h-.59c-.27,0-.38.02-.38.12,0,.08.08.15.13.22l1.53,1.62c.12.12.31.13.44.01,0,0,.02-.02.03-.03h0ZM8.08,41.7l.6-.03.21,2.12h-.59c-.12-.32-.33-.55-.55-.77-.62-.61-1.34-.88-2.09-.88-.97,0-1.85.1-1.85.9,0,1.23,5.55.28,5.55,2.6,0,1.21-1.1,1.88-3.24,1.88-.65,0-2.11-.18-2.81-.46l-.19.52h-.56l-.21-2.3h.59c.18.53.7.84.93,1.05.4.37,1.38.75,2.26.74,1.32-.01,1.81-.28,1.77-1.01-.02-.42-.51-.55-1.95-.77l-1.23-.2c-1.38-.21-2.37-.65-2.39-1.62-.02-1.14,1.4-1.81,3.29-1.79.64,0,1.44.21,1.99.46l.47-.45h0ZM26.75,45.27v-2.69c-.01-.29-.16-.39-.6-.39h-.78v-.46h3.4v.46h-.66c-.43,0-.59.1-.59.39v4.83l-.65.02-5.65-4.42v3.56c0,.28.15.39.59.39h.83v.45h-3.37v-.45h.56c.43,0,.59-.11.59-.39v-3.99c0-.29-.15-.39-.59-.39h-.56v-.46h2.92l4.57,3.54h0ZM14.62,41.59c2.66,0,4.46,1.17,4.46,2.88,0,1.91-1.67,3.03-4.55,3.03-2.71,0-4.41-1.13-4.41-2.93s1.73-2.98,4.5-2.98Z"/><path class="cls-1" d="M14.55,47.11c1.43,0,2.25-.92,2.25-2.54s-.8-2.63-2.18-2.63-2.27.96-2.27,2.57c0,1.65.8,2.61,2.2,2.61ZM34.26,16.37c0-5.82-6.52-10.54-14.56-10.54s-14.56,4.72-14.56,10.54,6.33,10.4,14.21,10.53v8.48h.94v-7.93l11.22,6.46.47-.81-10.85-6.25c7.37-.52,13.13-5.02,13.13-10.49h0Z"/><path class="cls-2" d="M19.71,26.33c6.89,0,12.48-4.46,12.48-9.96s-5.59-9.96-12.48-9.96-12.48,4.46-12.48,9.96,5.59,9.96,12.48,9.96Z"/><path class="cls-1" d="M19.71,24.92c6.48,0,11.73-3.83,11.73-8.55s-5.25-8.55-11.73-8.55-11.73,3.83-11.73,8.55c0,4.72,5.25,8.55,11.73,8.55Z"/><path class="cls-2" d="M19.71,24.26c5.19,0,9.4-3.53,9.4-7.88s-4.21-7.88-9.4-7.88-9.4,3.53-9.4,7.88,4.21,7.88,9.4,7.88Z"/><path class="cls-1" d="M19.71,22.93c4.87,0,8.82-2.94,8.82-6.56s-3.95-6.56-8.82-6.56-8.82,2.94-8.82,6.56c0,3.62,3.95,6.56,8.82,6.56Z"/><path class="cls-2" d="M19.71,22.35c3.63,0,6.57-2.68,6.57-5.98s-2.94-5.98-6.57-5.98-6.57,2.68-6.57,5.98c0,3.3,2.94,5.98,6.57,5.98Z"/><path class="cls-1" d="M19.71,21.44c2.71,0,4.91-2.27,4.91-5.06s-2.2-5.06-4.91-5.06-4.91,2.27-4.91,5.06c0,2.8,2.2,5.06,4.91,5.06Z"/></g></g></svg>