<?xml version="1.0" encoding="UTF-8"?><svg id="_Слой_2" xmlns="http://www.w3.org/2000/svg" width="90" height="50" xmlns:xlink="http://www.w3.org/1999/xlink" viewBox="0 0 90 50"><defs><style>.cls-1{fill:url(#_Безымянный_градиент);stroke-width:0px;}</style><linearGradient id="_Безымянный_градиент" x1="45" y1="50" x2="45" y2=".06" gradientTransform="translate(0 50) scale(1 -1)" gradientUnits="userSpaceOnUse"><stop offset="0" stop-color="#f48506"/><stop offset="1" stop-color="#f30"/></linearGradient></defs><g id="_Слой_2-2"><g id="_Слой_1-2"><g id="soundcloud"><path class="cls-1" d="M4.36,19.96c-.18,0-.35.16-.37.36l-.88,7.95.88,7.77c.02.2.18.36.37.36s.35-.14.37-.36l1-7.77-1-7.95c-.04-.2-.18-.36-.37-.36h0ZM1.02,22.99c-.18,0-.33.14-.37.34l-.65,4.91.65,4.83c.02.2.16.34.37.34s.33-.14.37-.34l.78-4.83-.78-4.91c-.04-.2-.18-.34-.37-.34,0,0,0,0,0,0ZM7.88,18.4c-.25,0-.43.18-.45.44l-.84,9.43.84,9.07c.02.26.2.44.45.44s.43-.18.45-.44l.96-9.09-.96-9.43c-.04-.26-.22-.44-.45-.44h0v.02ZM11.45,18.06c-.29,0-.51.22-.53.52l-.8,9.69.8,9.37c.02.3.25.5.53.5s.51-.22.53-.5l.9-9.37-.9-9.69c-.02-.28-.25-.5-.53-.5h0v-.02ZM15.65,19.26c-.02-.34-.29-.58-.59-.58s-.59.26-.61.58l-.76,8.97.76,9.45c.02.34.29.58.61.58s.57-.26.59-.58l.86-9.45-.86-8.99h0v.02ZM18.68,12.98c-.37,0-.65.3-.67.66l-.7,14.62.7,9.45c0,.36.31.66.67.66s.65-.3.67-.66h0l.8-9.43-.8-14.62c-.02-.38-.33-.66-.67-.66h0v-.02ZM22.25,9.61c-.41,0-.74.32-.76.74l-.65,17.96.65,9.39c0,.4.35.74.76.74s.74-.32.76-.74h0l.74-9.39-.74-17.96c0-.42-.35-.74-.76-.74h0ZM26,7.99c-.45,0-.82.36-.84.82l-.61,19.46.61,9.29c0,.46.39.82.84.82s.82-.36.84-.82h0l.7-9.29-.7-19.46c0-.46-.39-.82-.84-.82h0ZM30.62,8.15c0-.5-.41-.9-.92-.9s-.9.4-.92.9l-.57,20.12.57,9.23c0,.5.41.88.92.88s.9-.4.92-.9l.63-9.23-.63-20.12h0v.02ZM33.44,7.69c-.53,0-.98.42-.98.96l-.53,19.6.53,9.15c0,.54.45.96.98.96s.98-.42.98-.98h0l.59-9.13-.59-19.6c0-.54-.45-.96-.98-.96h0ZM37.21,8.33c-.59,0-1.04.46-1.06,1.04l-.47,18.88.47,9.09c0,.58.47,1.04,1.06,1.04s1.06-.46,1.06-1.04h0l.53-9.07-.53-18.88c0-.58-.47-1.04-1.06-1.04h0v-.02ZM41.65,4.87c-.18-.12-.41-.18-.63-.18s-.45.06-.61.18c-.33.2-.51.56-.53.94v.22l-.43,22.25.43,9.03v.04c0,.26.1.48.27.66.2.26.53.4.88.42.31,0,.59-.12.8-.34s.33-.48.35-.78l.04-.9.43-8.13-.49-22.47c0-.38-.2-.72-.51-.92h0l.02-.02ZM45.41,2.74c-.43-.26-1-.22-1.39.1-.29.22-.45.56-.45.92v.12l-.49,24.39.25,4.51.25,4.39c0,.64.55,1.18,1.21,1.18s1.21-.54,1.23-1.2h0l.53-8.89-.53-24.51c0-.42-.23-.8-.59-1.02h0ZM78.93,16.66c-1.51,0-2.97.3-4.28.84-.88-9.81-9.25-17.5-19.45-17.5-2.41,0-4.83.44-7.08,1.3-.84.32-1.06.64-1.06,1.28v34.52c0,.66.53,1.18,1.19,1.24h30.68c6.12,0,11.07-4.81,11.07-10.83s-4.95-10.89-11.07-10.89h0v.04ZM8.84,44.91c-1.29-.3-1.64-.46-1.64-.96,0-.36.29-.72,1.17-.72.76,0,1.33.3,1.86.82l1.19-1.12c-.78-.8-1.72-1.26-2.99-1.26-1.62,0-2.92.9-2.92,2.36,0,1.58,1.04,2.06,2.56,2.4,1.53.34,1.82.58,1.82,1.1,0,.6-.45.88-1.43.88-.78,0-1.51-.26-2.09-.92l-1.19,1.04c.61.9,1.82,1.46,3.17,1.46,2.23,0,3.21-1.04,3.21-2.56,0-1.76-1.43-2.18-2.74-2.48h0l.02-.04ZM16.36,41.67c-2.23,0-3.56,1.7-3.56,4.16s1.33,4.16,3.56,4.16,3.56-1.7,3.56-4.16-1.33-4.16-3.56-4.16ZM16.36,48.36c-1.33,0-1.86-1.12-1.86-2.56s.55-2.56,1.86-2.56,1.88,1.12,1.88,2.56-.55,2.56-1.88,2.56ZM26.53,46.3c0,1.28-.63,2.08-1.68,2.08s-1.68-.82-1.68-2.1v-4.49h-1.64v4.51c0,2.34,1.33,3.66,3.31,3.66,2.09,0,3.31-1.34,3.31-3.68v-4.49h-1.64v4.51h0ZM35.22,45.19c0,.44.02,1.46.02,1.76-.1-.2-.37-.6-.57-.9l-2.9-4.25h-1.58v8.05h1.62v-3.54c0-.44-.02-1.46-.02-1.76.1.2.37.6.57.9l3.01,4.39h1.45v-8.05h-1.62v3.4h.02ZM41.5,41.79h-2.56v8.05h2.43c2.11,0,4.19-1.2,4.19-4.02s-1.74-4.02-4.07-4.02v-.02ZM41.4,48.26h-.8v-4.91h.88c1.74,0,2.43.82,2.43,2.46,0,1.48-.8,2.46-2.52,2.46h0ZM50.65,43.27c.74,0,1.21.32,1.49.88l1.51-.68c-.51-1.04-1.45-1.78-2.99-1.78-2.15,0-3.64,1.7-3.64,4.16s1.43,4.16,3.58,4.16c1.49,0,2.45-.68,3.03-1.82l-1.39-.8c-.43.72-.86,1.02-1.6,1.02-1.23,0-1.94-1.1-1.94-2.56s.7-2.56,1.92-2.56l.02-.02ZM56.72,41.79h-1.64v8.05h4.93v-1.58h-3.29v-6.45h0v-.02ZM64.31,41.67c-2.23,0-3.56,1.7-3.56,4.16s1.33,4.16,3.56,4.16,3.56-1.7,3.56-4.16-1.33-4.16-3.56-4.16ZM64.31,48.36c-1.33,0-1.86-1.12-1.86-2.56s.55-2.56,1.86-2.56,1.86,1.12,1.86,2.56-.55,2.56-1.86,2.56h0ZM74.48,46.3c0,1.28-.63,2.08-1.68,2.08s-1.68-.82-1.68-2.1v-4.49h-1.64v4.51c0,2.34,1.33,3.66,3.31,3.66,2.09,0,3.31-1.34,3.31-3.68v-4.49h-1.64v4.51h0ZM80.71,41.79h-2.56v8.05h2.43c2.11,0,4.19-1.2,4.19-4.02s-1.72-4.02-4.07-4.02h0v-.02ZM80.59,48.26h-.8v-4.91h.86c1.74,0,2.43.82,2.43,2.46,0,1.48-.78,2.46-2.5,2.46Z"/></g></g></g></svg>