<?xml version="1.0" encoding="UTF-8"?><svg id="_Слой_2" xmlns="http://www.w3.org/2000/svg" width="84" height="25" viewBox="0 0 84 25"><defs><style>.cls-1{fill:#1ed760;stroke-width:0px;}</style></defs><g id="_Слой_2-2"><g id="spotify"><path id="spotify-2" class="cls-1" d="M12.59,0C5.64,0,0,5.59,0,12.5s5.64,12.5,12.59,12.5,12.59-5.59,12.59-12.5S19.56,0,12.59,0h0ZM18.37,18.03c-.23.36-.71.49-1.08.26h0c-2.96-1.8-6.68-2.2-11.07-1.2-.42.09-.85-.17-.94-.58-.1-.42.17-.84.59-.94h0c4.8-1.09,8.91-.62,12.23,1.39.37.23.49.7.26,1.07ZM19.91,14.62c-.29.46-.89.6-1.35.32-3.39-2.07-8.55-2.66-12.55-1.45-.52.15-1.07-.14-1.23-.65-.16-.52.14-1.06.65-1.22,4.58-1.38,10.26-.71,14.15,1.66.46.28.61.88.32,1.34h.01ZM20.05,11.08c-4.06-2.4-10.76-2.61-14.63-1.44-.62.19-1.28-.16-1.47-.78-.19-.62.16-1.27.78-1.46,4.45-1.34,11.85-1.08,16.52,1.67.56.33.74,1.05.41,1.6h0c-.33.56-1.06.74-1.61.41h0ZM34.27,11.54c-2.17-.52-2.56-.88-2.56-1.64,0-.72.68-1.2,1.69-1.2s1.95.36,2.97,1.12c.03.02.07.03.11.02.04,0,.07-.02.1-.06l1.06-1.48c.05-.06.03-.15-.03-.19-1.21-.97-2.58-1.43-4.17-1.43-2.35,0-3.99,1.4-3.99,3.4,0,2.15,1.41,2.9,3.86,3.49,2.08.48,2.43.88,2.43,1.59,0,.79-.71,1.28-1.85,1.28-1.27,0-2.3-.42-3.47-1.42-.03-.02-.07-.03-.11-.03s-.08.02-.1.05l-1.19,1.4c-.05.06-.05.15.02.19,1.35,1.19,3.01,1.83,4.79,1.83,2.53,0,4.16-1.37,4.16-3.49,0-1.79-1.08-2.78-3.73-3.43h-.01ZM43.73,9.41c-1.1,0-2,.43-2.74,1.31v-.99c0-.08-.07-.14-.14-.14h-1.95c-.08,0-.14.06-.14.14v10.98c0,.08.07.14.14.14h1.95c.08,0,.14-.07.14-.14v-3.47c.74.83,1.64,1.23,2.74,1.23,2.04,0,4.1-1.56,4.1-4.53s-2.06-4.53-4.1-4.53h0ZM45.57,13.94c0,1.52-.94,2.58-2.29,2.58s-2.33-1.1-2.33-2.57,1.01-2.57,2.33-2.57,2.29,1.08,2.29,2.57h0ZM53.12,9.41c-2.63,0-4.68,2.01-4.68,4.57s2.04,4.51,4.65,4.51,4.7-2,4.7-4.55-2.05-4.53-4.66-4.53h0ZM53.12,16.53c-1.4,0-2.45-1.11-2.45-2.59s1.02-2.56,2.42-2.56,2.46,1.11,2.46,2.59-1.02,2.56-2.43,2.56h0ZM63.39,9.59h-2.14v-2.18c0-.08-.07-.14-.14-.14h-1.95c-.08,0-.14.07-.14.14v2.18h-.94c-.08,0-.14.06-.14.14v1.66c0,.08.07.14.14.14h.94v4.3c0,1.73.87,2.62,2.59,2.62.7,0,1.28-.15,1.82-.45.05-.02.07-.07.07-.12v-1.58s-.03-.09-.07-.12c-.04-.02-.1-.03-.14,0-.37.18-.74.27-1.14.27-.62,0-.91-.28-.91-.91v-3.99h2.14c.08,0,.14-.06.14-.14v-1.66c0-.07-.06-.14-.14-.14h0ZM70.85,9.6v-.27c0-.78.3-1.14.99-1.14.41,0,.73.08,1.1.2.05.02.09,0,.13-.02.04-.02.06-.07.06-.11v-1.63c0-.06-.04-.12-.1-.14-.39-.11-.88-.23-1.62-.23-1.8,0-2.75,1.01-2.75,2.91v.41h-.94c-.08,0-.14.06-.14.14v1.67c0,.08.07.14.14.14h.94v6.63c0,.08.07.14.14.14h1.95c.08,0,.14-.07.14-.14v-6.63h1.82l2.79,6.63c-.32.69-.63.83-1.05.83-.34,0-.7-.1-1.08-.31-.04-.01-.08-.02-.11-.01-.04.01-.07.04-.09.08l-.66,1.43c-.03.07,0,.15.06.18.69.37,1.31.53,2.08.53,1.44,0,2.23-.67,2.93-2.45l3.38-8.66s.01-.1-.02-.13c-.03-.04-.07-.06-.12-.06h-2.03c-.06,0-.12.04-.14.1l-2.08,5.89-2.27-5.89c-.02-.06-.08-.09-.13-.09h-3.33,0ZM66.53,9.59h-1.95c-.08,0-.14.06-.14.14v8.43c0,.08.07.14.14.14h1.95c.08,0,.14-.07.14-.14v-8.43c0-.08-.07-.14-.14-.14h0ZM65.56,5.75c-.77,0-1.4.62-1.4,1.39s.62,1.39,1.4,1.39,1.4-.62,1.4-1.39-.62-1.39-1.4-1.39ZM82.62,12.3c-.77,0-1.37-.61-1.37-1.36s.61-1.36,1.38-1.36,1.37.61,1.37,1.36-.61,1.37-1.38,1.37h0ZM82.63,9.7c-.7,0-1.23.56-1.23,1.23s.53,1.23,1.23,1.23,1.23-.56,1.23-1.23-.53-1.23-1.23-1.23h0ZM82.93,11.07l.39.54h-.33l-.35-.49h-.3v.49h-.27v-1.43h.64c.34,0,.55.17.55.45,0,.23-.14.38-.33.44h0ZM82.7,10.43h-.36v.45h.36c.18,0,.29-.09.29-.23s-.11-.23-.29-.22Z"/></g></g></svg>