<?xml version="1.0" encoding="UTF-8"?><svg id="_Слой_2" xmlns="http://www.w3.org/2000/svg" width="40" height="50" viewBox="0 0 40 50"><defs><style>.cls-1{fill:#fff;}.cls-1,.cls-2{stroke-width:0px;}.cls-2{fill:#004db4;}</style></defs><g id="wb"><g id="wb-2"><path id="wb-3" class="cls-2" d="M39.53,8.89c-.05-.21-.1-.29-.21-.31l-3.77-1.01-.52-2.14c-.03-.1-.05-.18-.16-.21l-3.87-1.04-.47-2.04c0-.12-.09-.23-.21-.26L20.25.02c-.16-.03-.33-.03-.5,0l-10.06,1.86c-.12.03-.2.14-.21.26l-.47,2.04-3.87,1.04c-.1.03-.13.1-.15.21l-.53,2.14-3.77,1.01c-.1.03-.16.1-.21.31C.15,10.55,0,12.25,0,13.95,0,28.97,7.85,42.01,19.58,49.79c.12.1.26.17.42.21.15-.04.3-.11.42-.21,11.73-7.77,19.58-20.82,19.58-35.84,0-1.7-.15-3.39-.47-5.06h0Z"/><path id="wb-4" class="cls-1" d="M19.08,43.37c0,.1-.1.15-.21.05-2.88-3.29-4.82-7.3-6.13-11.68l-1.99,1.24c-.53.36-.94.21-1.26-.37-2.67-4.7-4.4-12.41-4.55-17.84,0-.25.09-.49.26-.67.71-.85,1.48-1.65,2.3-2.4.15-.16.31-.05.31.21,0,6.68,1.15,12.89,2.99,16.95.15.31.31.31.52.16l.58-.37c-1.1-4.85-1.73-11.32-1.57-18.78,0-.26.05-.37.21-.47.8-.5,1.64-.93,2.51-1.3.26-.1.32-.05.32.15-.16,10.85.73,18.36,2.67,24.36.05.15.21.1.21-.05-.1-2.19-.1-4.12-.1-6.47l-.1-18.73c0-.21.05-.31.26-.37.86-.21,1.73-.37,2.61-.47.08,0,.15.04.16.12,0,.01,0,.02,0,.04v36.69ZM22.17,6.53c-.08-.01-.15.04-.16.11,0,.01,0,.03,0,.04v36.68c0,.1.1.15.21.05h0c9.85-9.09,12.83-15.81,12.83-19.89,0-2.29-.89-4.01-3.19-4.64,1.18-1.3,1.83-2.99,1.83-4.74,0-4.23-4.5-7.15-11.51-7.62h0ZM25,9.96c3.19.22,5.6,1.94,5.6,4.02,0,2.19-1.55,4.54-5.6,6.87v-10.9ZM30.18,21.81c1,0,1.68.83,1.68,2.3,0,2.09-1.52,6.15-6.86,12.1v-11.79c3.09-2.19,4.08-2.61,5.18-2.61h0Z"/></g></g></svg>