<?xml version="1.0" encoding="UTF-8"?><svg id="_Слой_2" xmlns="http://www.w3.org/2000/svg" width="170" height="26" viewBox="0 0 170 26"><defs><style>.cls-1{fill:#fff;stroke-width:0px;}</style></defs><g id="_Слой_1-2"><path class="cls-1" d="M35.5.41l-7.06,25.27h-5.98l-4.75-17.99-4.96,17.99-5.94.04L0,.41S3.37-.1,5.43.41c7.63,1.89-3.4,19.36,4.46,19.62,7.92.26-2.54-17.69,5.14-19.62,2.14-.54,3.51-.55,5.65,0,7.61,1.94-3,19.65,4.85,19.51,7.82-.14-3.1-17.61,4.49-19.51,2.07-.52,5.47,0,5.47,0Z"/><path class="cls-1" d="M36.79,15.57c0-2.03.4-3.83,1.2-5.39.82-1.57,1.92-2.78,3.3-3.62,1.4-.84,2.96-1.27,4.67-1.27,1.5,0,2.8.3,3.91.91,1.14.6,2.04,1.36,2.72,2.28,0,0-.55-1.89,0-2.86.98-1.74,5.11,0,5.11,0v20.06h-5.11v-2.93c-.65.94-1.56,1.73-2.72,2.35-1.14.6-2.45.91-3.95.91-1.69,0-3.24-.43-4.64-1.3-1.38-.87-2.48-2.09-3.3-3.66-.8-1.59-1.2-3.41-1.2-5.47ZM52.58,15.65s-.24-2.28-.72-3.15c-.48-.89-1.14-1.57-1.96-2.03-.82-.48-1.7-.72-2.64-.72s-1.81.23-2.61.69-1.45,1.13-1.96,2.03c-.48.87-.72,3.11-.72,3.11,0,0,.24,2.27.72,3.19.51.89,1.16,1.58,1.96,2.06.82.48,1.69.72,2.61.72s1.82-.23,2.64-.69c.82-.48,1.47-1.16,1.96-2.03.48-.89.72-3.19.72-3.19Z"/><path class="cls-1" d="M70.29,21c6.33,0-1.01-13.64,5.07-15.39,2.03-.58,5.4,0,5.4,0l-7.43,20.06h-6.16l-7.39-20.06s3.39-.59,5.43,0c6.08,1.75-1.26,15.39,5.07,15.39Z"/><path class="cls-1" d="M101.54,15.21c0,.72-.05,1.38-.15,1.95-.1.58-14.79-1.45-14.67,0,.12,1.45.63,2.58,1.52,3.4.89.82,1.99,1.23,3.3,1.23,1.88,0,3.22-.81,4.02-2.43.8-1.62,5.47,0,5.47,0-.58,1.93-1.69,3.52-3.33,4.78-1.64,1.23-3.66,1.85-6.05,1.85-1.93,0-3.67-.42-5.22-1.27-1.52-.87-2.72-2.09-3.59-3.66-.85-1.57-1.27-3.38-1.27-5.43s.42-3.9,1.27-5.47c.85-1.57,2.03-2.78,3.55-3.62s3.27-1.27,5.25-1.27,3.61.41,5.11,1.23c1.52.82,2.69,1.99,3.51,3.51.84,1.5,1.27,3.22,1.27,5.18ZM96.29,13.76c-.02-1.3-.5-2.34-1.41-3.11-.92-.8-2.04-1.19-3.37-1.19-1.26,0-2.32.39-3.19,1.16-.85.75-1.36,1.8-1.56,3.15,0,0,9.55,1.3,9.53,0Z"/><path class="cls-1" d="M112.2,26c-1.64,0-3.12-.29-4.42-.87-1.3-.6-2.34-1.41-3.12-2.43-.75-1.01-1.16-2.14-1.23-3.37-.07-1.23,5.01-.77,5.11,0,.1.77.47,1.41,1.12,1.92.68.51,2.5.76,2.5.76,0,0,1.71-.19,2.25-.58.56-.39.83-.88.83-1.48,0-.65-1.01-1.45-1.01-1.45l-3.15-1.09s-2.73-.74-3.7-1.12c-.94-.39-1.76-.98-2.46-1.77-.68-.8-1.01-1.87-1.01-3.22,0-1.11.31-2.12.94-3.04.65-.92,1.57-1.64,2.75-2.17,1.21-.53,2.62-.8,4.24-.8,2.39,0,4.3.6,5.72,1.81,1.43,1.18,2.21,2.79,2.35,4.81.14,2.03-4.78.8-4.85,0-.07-.8-.41-1.42-1.01-1.88-.58-.48-2.35-.72-2.35-.72,0,0-1.63.17-2.14.51-.48.34-.72.81-.72,1.41,0,.68.34,1.19,1.01,1.56.68.34,3.15,1.05,3.15,1.05,0,0,2.64.74,3.59,1.12.94.39,1.75.99,2.43,1.81.7.8,1.06,1.86,1.09,3.19,0,1.16-.33,2.2-.98,3.11-.63.92-1.54,1.64-2.75,2.17-1.18.51-2.57.76-4.17.76Z"/><path class="cls-1" d="M122.3,13c0-2.68.56-4.71,1.67-6.66,1.13-1.98,2.67-3.51,4.6-4.6,1.96-1.11,4.14-1.67,6.56-1.67,2.83,0,5.3.72,7.43,2.17,2.13,1.45,3.61,3.45,4.46,6.01.85,2.56-5.25,1.21-5.83,0-.58-1.21-1.4-2.11-2.46-2.72-1.04-.6-2.25-.91-3.62-.91-1.47,0-2.79.35-3.95,1.05-1.13.68-2.03,1.64-2.68,2.9-.63,1.25-.94,4.42-.94,4.42,0,0,.31,3.14.94,4.42.65,1.25,1.55,2.23,2.68,2.93,1.16.68,2.48,1.01,3.95,1.01,1.38,0,2.58-.3,3.62-.91,1.06-.63,1.88-1.54,2.46-2.75.58-1.21,6.68-2.58,5.83,0-.85,2.58-2.33,4.6-4.46,6.05-2.1,1.42-4.58,2.14-7.43,2.14-2.41,0-4.6-.54-6.56-1.63-1.93-1.11-3.47-2.64-4.6-4.6-1.11-1.95-1.67-3.98-1.67-6.66Z"/><path class="cls-1" d="M159.53,26c-1.93,0-3.67-.42-5.22-1.27-1.55-.87-2.76-2.09-3.66-3.66-.87-1.57-1.3-3.38-1.3-5.43s.45-3.86,1.34-5.43c.92-1.57,2.16-2.78,3.73-3.62,1.57-.87,3.32-1.3,5.25-1.3s3.68.43,5.25,1.3c1.57.84,2.8,2.05,3.7,3.62.92,1.57,1.38,3.38,1.38,5.43s-.47,3.86-1.41,5.43c-.92,1.57-2.17,2.79-3.77,3.66-1.57.84-3.33,1.27-5.29,1.27ZM159.53,21.58s1.77-.22,2.57-.65c.82-.46,1.47-1.13,1.96-2.03.48-.89.72-3.26.72-3.26,0,0-.51-3.37-1.52-4.38-.99-1.04-3.66-1.56-3.66-1.56,0,0-2.67.52-3.66,1.56-.97,1.01-1.45,4.38-1.45,4.38,0,0,.47,3.38,1.41,4.42.97,1.01,3.62,1.52,3.62,1.52Z"/></g></svg>