<?xml version="1.0" encoding="UTF-8"?><svg id="_Слой_2" xmlns="http://www.w3.org/2000/svg" width="38" height="38" viewBox="0 0 38 38"><defs><style>.cls-1,.cls-2{fill:#0432df;}.cls-1,.cls-2,.cls-3{stroke-width:0px;}.cls-2{fill-rule:evenodd;}.cls-3{fill:#cdd6f9;}</style></defs><g id="_Слой_1-2"><g id="type_sounds"><circle class="cls-3" cx="19" cy="19" r="17.58"/><path class="cls-1" d="M19,38C8.52,38,0,29.48,0,19S8.52,0,19,0s19,8.52,19,19-8.52,19-19,19ZM19,2.85C10.09,2.85,2.85,10.09,2.85,19s7.24,16.15,16.15,16.15,16.15-7.24,16.15-16.15S27.91,2.85,19,2.85Z"/><path class="cls-2" d="M15.2,12.35c-.52,0-.95.43-.95.95v8.55c0,.52.43.95.95.95s.95-.43.95-.95v-8.55c0-.52-.43-.95-.95-.95ZM18.05,13.3c0-.52.43-.95.95-.95h2.38c2.36,0,4.27,1.91,4.27,4.27v-.48c2.62,0,4.75,2.13,4.75,4.75v1.12c0,.43-.35.78-.78.78h-10.62c-.52,0-.95-.43-.95-.95v-8.55ZM10.45,16.15c0-.52.43-.95.95-.95s.95.43.95.95v5.7c0,.52-.43.95-.95.95s-.95-.43-.95-.95v-5.7ZM7.6,18.05c-.52,0-.95.43-.95.95v2.85c0,.52.43.95.95.95s.95-.43.95-.95v-2.85c0-.52-.43-.95-.95-.95Z"/></g></g></svg>