<?xml version="1.0" encoding="UTF-8"?><svg id="_Слой_2" xmlns="http://www.w3.org/2000/svg" width="37" height="38" viewBox="0 0 37 38"><defs><style>.cls-1{fill:#0432df;}.cls-1,.cls-2{stroke-width:0px;}.cls-2{fill:#cdd6f9;}</style></defs><g id="type_best"><g id="type_best-2"><path class="cls-2" d="M4.19.14c.06-.19.32-.19.38,0l.9,2.76c.03.08.1.14.19.14h2.9c.2,0,.28.25.12.37l-2.34,1.71c-.07.05-.1.14-.07.23l.9,2.76c.06.19-.15.34-.31.23l-2.34-1.71c-.07-.05-.17-.05-.24,0l-2.34,1.71c-.16.12-.37-.04-.31-.23l.9-2.76c.03-.08,0-.17-.07-.23L.08,3.41c-.16-.12-.08-.37.12-.37h2.9c.09,0,.16-.06.19-.14L4.19.14Z"/><path class="cls-2" d="M18.31.14c.06-.19.32-.19.38,0l.9,2.76c.03.08.1.14.19.14h2.9c.2,0,.28.25.12.37l-2.34,1.71c-.07.05-.1.14-.07.23l.9,2.76c.06.19-.15.34-.31.23l-2.34-1.71c-.07-.05-.17-.05-.24,0l-2.34,1.71c-.16.12-.37-.04-.31-.23l.9-2.76c.03-.08,0-.17-.07-.23l-2.34-1.71c-.16-.12-.08-.37.12-.37h2.9c.09,0,.16-.06.19-.14l.9-2.76Z"/><path class="cls-2" d="M32.43.14c.06-.19.32-.19.38,0l.9,2.76c.03.08.1.14.19.14h2.9c.2,0,.28.25.12.37l-2.34,1.71c-.07.05-.1.14-.07.23l.9,2.76c.06.19-.15.34-.31.23l-2.34-1.71c-.07-.05-.17-.05-.24,0l-2.34,1.71c-.16.12-.37-.04-.31-.23l.9-2.76c.03-.08,0-.17-.07-.23l-2.34-1.71c-.16-.12-.08-.37.12-.37h2.9c.09,0,.16-.06.19-.14l.9-2.76Z"/><path class="cls-1" d="M31.02,15.6l-5.99,5.28-5.33-6.59c-.15-.18-.34-.33-.55-.43-.21-.1-.45-.15-.68-.15-.24,0-.47.06-.68.16-.21.11-.4.26-.54.44l-5.09,6.56-6.18-5.36c-.24-.21-.54-.34-.86-.37s-.64.03-.92.19c-.28.15-.51.39-.65.68-.14.29-.2.61-.15.93l2,16h26.23l2-15.92c.05-.32,0-.65-.15-.94-.14-.29-.37-.53-.66-.68s-.61-.22-.93-.18c-.32.04-.62.17-.86.38Z"/><path class="cls-2" d="M5.39,34.96h26.23v2.02c0,.56-.45,1.01-1.01,1.01H6.4c-.56,0-1.01-.45-1.01-1.01v-2.02Z"/></g></g></svg>