<?xml version="1.0" encoding="UTF-8"?><svg id="_Слой_2" xmlns="http://www.w3.org/2000/svg" width="38" height="38" xmlns:xlink="http://www.w3.org/1999/xlink" viewBox="0 0 38 38"><defs><style>.cls-1{fill:#0432df;}.cls-1,.cls-2,.cls-3{stroke-width:0px;}.cls-2{fill:#fff;}.cls-4{mask:url(#mask);}.cls-3{fill:#cdd6f9;}</style><mask id="mask" x="0" y="0" width="38" height="38" maskUnits="userSpaceOnUse"><g id="path-1-inside-1_237_421"><path class="cls-2" d="M31.87,10.17c0-1.07-.43-2.1-1.18-2.86-.76-.76-1.78-1.18-2.86-1.18h-1.84c-1.07,0-2.09-.42-2.85-1.18l-1.29-1.29c-.38-.38-.82-.68-1.31-.88-.49-.2-1.02-.31-1.55-.31s-1.06.11-1.55.31c-.49.2-.94.5-1.31.88l-1.29,1.29c-.76.75-1.78,1.17-2.85,1.18h-1.84c-1.07,0-2.1.43-2.86,1.18-.76.76-1.18,1.78-1.18,2.86v1.84c0,1.07-.42,2.09-1.18,2.85l-1.29,1.29c-.38.38-.68.82-.88,1.31-.2.49-.31,1.02-.31,1.55s.11,1.06.31,1.55c.2.49.5.94.88,1.31l1.29,1.29c.75.76,1.17,1.78,1.18,2.85v1.84c0,1.07.43,2.1,1.18,2.86.76.76,1.78,1.18,2.86,1.18h1.84c1.07,0,2.09.42,2.85,1.18l1.29,1.29c.38.38.82.68,1.31.88.49.2,1.02.31,1.55.31s1.06-.11,1.55-.31c.49-.2.94-.5,1.31-.88l1.29-1.29c.76-.75,1.78-1.17,2.85-1.18h1.84c1.07,0,2.1-.43,2.86-1.18.76-.76,1.18-1.78,1.18-2.86v-1.84c0-1.07.42-2.09,1.18-2.85l1.29-1.29c.38-.38.68-.82.88-1.31.2-.49.31-1.02.31-1.55s-.11-1.06-.31-1.55c-.2-.49-.5-.94-.88-1.31l-1.29-1.29c-.75-.76-1.17-1.78-1.18-2.85v-1.84Z"/></g></mask></defs><g id="_Слой_1-2"><g id="type_royalty"><path class="cls-3" d="M31.87,10.17c0-1.07-.43-2.1-1.18-2.86-.76-.76-1.78-1.18-2.86-1.18h-1.84c-1.07,0-2.09-.42-2.85-1.18l-1.29-1.29c-.38-.38-.82-.68-1.31-.88-.49-.2-1.02-.31-1.55-.31s-1.06.11-1.55.31c-.49.2-.94.5-1.31.88l-1.29,1.29c-.76.75-1.78,1.17-2.85,1.18h-1.84c-1.07,0-2.1.43-2.86,1.18-.76.76-1.18,1.78-1.18,2.86v1.84c0,1.07-.42,2.09-1.18,2.85l-1.29,1.29c-.38.38-.68.82-.88,1.31-.2.49-.31,1.02-.31,1.55s.11,1.06.31,1.55c.2.49.5.94.88,1.31l1.29,1.29c.75.76,1.17,1.78,1.18,2.85v1.84c0,1.07.43,2.1,1.18,2.86.76.76,1.78,1.18,2.86,1.18h1.84c1.07,0,2.09.42,2.85,1.18l1.29,1.29c.38.38.82.68,1.31.88.49.2,1.02.31,1.55.31s1.06-.11,1.55-.31c.49-.2.94-.5,1.31-.88l1.29-1.29c.76-.75,1.78-1.17,2.85-1.18h1.84c1.07,0,2.1-.43,2.86-1.18.76-.76,1.18-1.78,1.18-2.86v-1.84c0-1.07.42-2.09,1.18-2.85l1.29-1.29c.38-.38.68-.82.88-1.31.2-.49.31-1.02.31-1.55s-.11-1.06-.31-1.55c-.2-.49-.5-.94-.88-1.31l-1.29-1.29c-.75-.76-1.17-1.78-1.18-2.85v-1.84Z"/><path class="cls-3" d="M37.5,16.5c-.33-.8-.81-1.52-1.42-2.12l-1.28-1.28c-.29-.29-.45-.68-.45-1.1v-1.83c0-.09,0-.19,0-.28-.07-1.63-.75-3.18-1.9-4.33-1.22-1.22-2.88-1.91-4.61-1.91h-1.83c-.42,0-.81-.16-1.1-.45l-1.28-1.28c-.6-.61-1.32-1.09-2.12-1.42C20.71.17,19.86,0,19,0s-1.71.17-2.5.5c-.8.33-1.52.81-2.12,1.42l-1.28,1.28c-.29.29-.68.45-1.1.45h-1.83c-1.73,0-3.39.69-4.61,1.91-1.22,1.22-1.91,2.88-1.91,4.61v1.83c0,.42-.16.81-.45,1.1l-1.28,1.28c-.61.6-1.09,1.32-1.42,2.12-.33.79-.5,1.64-.5,2.5s.17,1.71.5,2.5c.33.8.81,1.52,1.42,2.12l1.28,1.28c.29.29.45.68.45,1.1v1.83c0,1.73.69,3.39,1.91,4.61,1.22,1.22,2.88,1.91,4.61,1.91h1.83c.42,0,.81.16,1.1.45l1.28,1.28c.6.61,1.32,1.09,2.12,1.42.79.33,1.64.5,2.5.5s1.71-.17,2.5-.5c.8-.33,1.52-.81,2.12-1.42l1.28-1.28c.29-.29.68-.45,1.1-.45h1.83c1.73,0,3.39-.69,4.61-1.91,1.22-1.22,1.91-2.88,1.91-4.61v-1.83c0-.42.16-.81.45-1.1l1.28-1.28c.61-.6,1.09-1.32,1.42-2.12.33-.79.5-1.64.5-2.5s-.17-1.71-.5-2.5ZM32.58,20.11l-1.29,1.29c-1.22,1.22-1.9,2.87-1.9,4.59h0v1.84c0,.42-.16.81-.46,1.1-.29.3-.68.46-1.1.46h-1.84c-1.72,0-3.37.68-4.59,1.9l-1.29,1.29c-.15.15-.32.26-.51.34-.19.08-.39.12-.6.12s-.41-.04-.6-.12c-.19-.08-.36-.19-.51-.34l-1.29-1.29c-1.22-1.22-2.87-1.9-4.59-1.9h-1.84c-.42,0-.81-.16-1.1-.46-.3-.29-.46-.68-.46-1.1v-1.83h0c0-1.73-.68-3.38-1.9-4.6l-1.29-1.29c-.15-.15-.26-.32-.34-.51-.08-.19-.12-.39-.12-.6s.04-.41.12-.6c.08-.19.19-.36.34-.51l1.29-1.29c1.22-1.22,1.9-2.87,1.9-4.59h0v-1.84c0-.42.16-.81.46-1.1.29-.3.68-.46,1.1-.46h1.84c1.72,0,3.37-.68,4.59-1.9l1.29-1.29c.15-.15.32-.26.51-.34.19-.08.39-.12.6-.12s.41.04.6.12c.19.08.36.19.51.34l1.29,1.29c1.22,1.22,2.87,1.9,4.59,1.9h1.84c.42,0,.81.16,1.1.46.3.29.46.68.46,1.1v1.83h0c0,1.73.68,3.38,1.9,4.6l1.29,1.29c.15.15.26.32.34.51.08.19.12.39.12.6s-.04.41-.12.6c-.08.19-.19.36-.34.51Z"/><g class="cls-4"><path class="cls-1" d="M34.35,10.17c0,1.37-1.11,2.48-2.48,2.48s-2.48-1.11-2.48-2.48h4.96ZM27.83,6.13v-2.48,2.48ZM26,6.13v2.48h0v-2.48ZM23.15,4.95l-1.75,1.76h0s1.75-1.76,1.75-1.76ZM21.86,3.67l-1.75,1.75h0s1.76-1.75,1.76-1.75ZM19,2.48V0v2.48ZM16.14,3.67l1.76,1.75h0s-1.75-1.75-1.75-1.75ZM14.85,4.95l1.75,1.75h0s-1.75-1.75-1.75-1.75ZM12,6.13v2.48s0,0,0,0v-2.48ZM10.17,6.13v-2.48,2.48ZM6.13,12h2.48s-2.48,0-2.48,0ZM4.95,14.85l1.76,1.75h0s-1.75-1.75-1.75-1.75ZM3.67,16.14l1.75,1.75h0s-1.75-1.75-1.75-1.75ZM3.67,21.86l1.75-1.76h0s-1.75,1.76-1.75,1.76ZM4.95,23.15l1.75-1.75h0s-1.76,1.75-1.76,1.75ZM6.13,26h2.48s0,0,0,0h-2.48ZM12,31.87v-2.48h0v2.48ZM14.85,33.05l1.75-1.76h0s-1.75,1.76-1.75,1.76ZM16.14,34.33l1.75-1.75h0s-1.76,1.75-1.76,1.75ZM21.86,34.33l-1.76-1.75h0s1.75,1.75,1.75,1.75ZM23.15,33.05l-1.75-1.75h0s1.75,1.75,1.75,1.75ZM26,31.87v-2.48s0,0,0,0v2.48ZM31.87,27.83h2.48-2.48ZM31.87,26h-2.48s2.48,0,2.48,0ZM33.05,23.15l-1.76-1.75h0s1.75,1.75,1.75,1.75ZM34.33,21.86l-1.75-1.75h0s1.75,1.75,1.75,1.75ZM35.52,19h2.48-2.48ZM34.33,16.14l-1.75,1.76h0s1.75-1.76,1.75-1.76ZM33.05,14.85l-1.75,1.75h0s1.76-1.75,1.76-1.75ZM31.87,12h-2.48s0,0,0,0h2.48ZM29.39,10.17c0-1.37,1.11-2.48,2.48-2.48s2.48,1.11,2.48,2.48h-4.96ZM29.39,10.17c0-.41-.16-.81-.46-1.1l3.5-3.5c1.22,1.22,1.91,2.88,1.91,4.61h-4.96ZM28.93,9.07c-.29-.29-.69-.46-1.1-.46V3.65c1.73,0,3.39.69,4.61,1.91l-3.5,3.5ZM27.83,8.61h-1.84V3.65h1.84v4.96ZM25.99,8.61c-1.72,0-3.37-.68-4.59-1.9l3.49-3.51c.29.29.69.45,1.1.45v4.96ZM21.4,6.71l-1.29-1.29,3.5-3.5,1.29,1.29-3.5,3.5ZM20.11,5.42c-.15-.15-.32-.26-.51-.34l1.9-4.58c.79.33,1.51.81,2.12,1.42l-3.51,3.49ZM19.6,5.08c-.19-.08-.39-.12-.6-.12V0c.86,0,1.71.17,2.5.5l-1.9,4.58ZM19,4.96c-.21,0-.41.04-.6.12l-1.9-4.58c.79-.33,1.64-.5,2.5-.5v4.96ZM18.4,5.08c-.19.08-.36.19-.51.34l-3.51-3.49c.61-.61,1.33-1.09,2.12-1.42l1.9,4.58ZM17.89,5.42l-1.29,1.29-3.5-3.5,1.29-1.29,3.5,3.5ZM16.6,6.71c-1.22,1.21-2.87,1.89-4.59,1.9V3.65c.41,0,.8-.16,1.1-.45l3.49,3.51ZM12,8.61h-1.84V3.65h1.84v4.96ZM10.17,8.61c-.41,0-.81.16-1.1.46l-3.5-3.5c1.22-1.22,2.88-1.91,4.61-1.91v4.96ZM9.07,9.07c-.29.29-.46.69-.46,1.1H3.65c0-1.73.69-3.39,1.91-4.61l3.5,3.5ZM8.61,10.17v1.84H3.65v-1.84h4.96ZM8.61,12.01c0,1.72-.68,3.37-1.9,4.59l-3.51-3.49c.29-.29.45-.69.45-1.1h4.96ZM6.71,16.6l-1.29,1.29-3.5-3.5,1.29-1.29,3.5,3.5ZM5.42,17.89c-.15.15-.26.32-.34.51l-4.58-1.9c.33-.79.81-1.51,1.42-2.12l3.49,3.51ZM5.08,18.4c-.08.19-.12.39-.12.6H0C0,18.14.17,17.29.5,16.5l4.58,1.9ZM4.96,19c0,.21.04.41.12.6l-4.58,1.9C.17,20.71,0,19.86,0,19h4.96ZM5.08,19.6c.08.19.19.36.34.51l-3.49,3.51c-.61-.61-1.09-1.33-1.42-2.12l4.58-1.9ZM5.42,20.11l1.29,1.29-3.5,3.5-1.29-1.29,3.5-3.5ZM6.71,21.4c1.21,1.22,1.89,2.87,1.9,4.59H3.65c0-.41-.16-.8-.45-1.1l3.51-3.49ZM8.61,26v1.84H3.65v-1.84h4.96ZM8.61,27.83c0,.41.16.81.46,1.1l-3.5,3.5c-1.22-1.22-1.91-2.88-1.91-4.61h4.96ZM9.07,28.93c.29.29.69.46,1.1.46v4.96c-1.73,0-3.39-.69-4.61-1.91l3.5-3.5ZM10.17,29.39h1.84v4.96h-1.84v-4.96ZM12.01,29.39c1.72,0,3.37.68,4.59,1.9l-3.49,3.51c-.29-.29-.69-.45-1.1-.45v-4.96ZM16.6,31.29l1.29,1.29-3.5,3.5-1.29-1.29,3.5-3.5ZM17.89,32.58c.15.15.32.26.51.34l-1.9,4.58c-.79-.33-1.51-.81-2.12-1.42l3.51-3.49ZM18.4,32.92c.19.08.39.12.6.12v4.96c-.86,0-1.71-.17-2.5-.5l1.9-4.58ZM19,33.04c.21,0,.41-.04.6-.12l1.9,4.58c-.79.33-1.64.5-2.5.5v-4.96ZM19.6,32.92c.19-.08.36-.19.51-.34l3.51,3.49c-.61.61-1.33,1.09-2.12,1.42l-1.9-4.58ZM20.11,32.58l1.29-1.29,3.5,3.5-1.29,1.29-3.5-3.5ZM21.4,31.29c1.22-1.21,2.87-1.89,4.59-1.9v4.96c-.41,0-.8.16-1.1.45l-3.49-3.51ZM26,29.39h1.84v4.96h-1.84v-4.96ZM27.83,29.39c.41,0,.81-.16,1.1-.46l3.5,3.5c-1.22,1.22-2.88,1.91-4.61,1.91v-4.96ZM28.93,28.93c.29-.29.46-.69.46-1.1h4.96c0,1.73-.69,3.39-1.91,4.61l-3.5-3.5ZM29.39,27.83v-1.84h4.96v1.84h-4.96ZM29.39,25.99c0-1.72.68-3.37,1.9-4.59l3.51,3.49c-.29.29-.45.69-.45,1.1h-4.96ZM31.29,21.4l1.29-1.29,3.5,3.5-1.29,1.29-3.5-3.5ZM32.58,20.11c.15-.15.26-.32.34-.51l4.58,1.9c-.33.79-.81,1.51-1.42,2.12l-3.49-3.51ZM32.92,19.6c.08-.19.12-.39.12-.6h4.96c0,.86-.17,1.71-.5,2.5l-4.58-1.9ZM33.04,19c0-.21-.04-.41-.12-.6l4.58-1.9c.33.79.5,1.64.5,2.5h-4.96ZM32.92,18.4c-.08-.19-.19-.36-.34-.51l3.49-3.51c.61.61,1.09,1.33,1.42,2.12l-4.58,1.9ZM32.58,17.89l-1.29-1.29,3.5-3.5,1.29,1.29-3.5,3.5ZM31.29,16.6c-1.21-1.22-1.89-2.87-1.9-4.59h4.96c0,.41.16.8.45,1.1l-3.51,3.49ZM29.39,12v-1.84h4.96v1.84h-4.96Z"/></g><path class="cls-1" d="M11.21,21.48h.87v-2.04h2v-.73h-2v-1.3h2.21v-.73h-3.08v4.81ZM15.09,21.48h.87v-1.76h.89l.94,1.76h.97l-1.04-1.91c.57-.23.86-.71.86-1.36,0-.92-.59-1.54-1.69-1.54h-1.8v4.81ZM15.96,19v-1.6h.8c.65,0,.94.3.94.81s-.29.79-.94.79h-.8ZM19.38,21.48h3.14v-.73h-2.27v-1.31h2.09v-.73h-2.09v-1.3h2.26v-.73h-3.13v4.81ZM23.4,21.48h3.14v-.73h-2.27v-1.31h2.09v-.73h-2.09v-1.3h2.26v-.73h-3.13v4.81Z"/></g></g></svg>