<?xml version="1.0" encoding="UTF-8"?><svg id="_Слой_2" xmlns="http://www.w3.org/2000/svg" width="37" height="38" viewBox="0 0 37 38"><defs><style>.cls-1{fill:#0432df;}.cls-1,.cls-2{stroke-width:0px;}.cls-2{fill:#cdd6f9;}</style></defs><g id="type_customers"><g id="type_customers-2"><ellipse class="cls-2" cx="18.5" cy="26.47" rx="10.5" ry="10.57"/><path class="cls-1" d="M18.5,9.18c7.76,0,14.31,6.6,14.31,14.41s-6.55,14.41-14.31,14.41-14.31-6.6-14.31-14.41,6.55-14.41,14.31-14.41ZM18.5,16.38c-2.47,0-4.29,1.83-4.29,4.32s1.82,4.32,4.29,4.32,4.29-1.83,4.29-4.32-1.82-4.32-4.29-4.32ZM25.81,30.47c-1.28-1.9-3.42-3.17-5.88-3.17h-2.86c-2.45,0-4.59,1.27-5.88,3.17,1.83,1.97,4.42,3.21,7.31,3.21s5.48-1.24,7.31-3.21Z"/><path class="cls-2" d="M3.05,7.82c.06-.18.31-.18.36,0l.63,1.96c.03.08.1.13.18.13h2.05c.18,0,.26.24.11.35l-1.66,1.21c-.07.05-.09.14-.07.21l.63,1.96c.06.18-.14.32-.29.21l-1.66-1.21c-.07-.05-.16-.05-.22,0l-1.66,1.21c-.15.11-.35-.04-.29-.21l.63-1.96c.03-.08,0-.17-.07-.21L.08,10.26c-.15-.11-.07-.35.11-.35h2.05c.08,0,.16-.05.18-.13l.63-1.96Z"/><path class="cls-2" d="M33.95,7.82c-.06-.18-.31-.18-.36,0l-.63,1.96c-.03.08-.1.13-.18.13h-2.05c-.18,0-.26.24-.11.35l1.66,1.21c.07.05.09.14.07.21l-.63,1.96c-.06.18.14.32.29.21l1.66-1.21c.07-.05.16-.05.22,0l1.66,1.21c.15.11.35-.04.29-.21l-.63-1.96c-.03-.08,0-.17.07-.21l1.66-1.21c.15-.11.07-.35-.11-.35h-2.05c-.08,0-.16-.05-.18-.13l-.63-1.96Z"/><path class="cls-2" d="M9.73,2.05c.06-.18.31-.18.36,0l.63,1.96c.03.08.1.13.18.13h2.05c.18,0,.26.24.11.35l-1.66,1.21c-.07.05-.09.14-.07.21l.63,1.96c.06.18-.14.32-.29.21l-1.66-1.21c-.07-.05-.16-.05-.22,0l-1.66,1.21c-.15.11-.35-.04-.29-.21l.63-1.96c.03-.08,0-.17-.07-.21l-1.66-1.21c-.15-.11-.07-.35.11-.35h2.05c.08,0,.16-.05.18-.13l.63-1.96Z"/><path class="cls-2" d="M27.27,2.05c-.06-.18-.31-.18-.36,0l-.63,1.96c-.03.08-.1.13-.18.13h-2.05c-.18,0-.26.24-.11.35l1.66,1.21c.07.05.09.14.07.21l-.63,1.96c-.06.18.14.32.29.21l1.66-1.21c.07-.05.16-.05.22,0l1.66,1.21c.15.11.35-.04.29-.21l-.63-1.96c-.03-.08,0-.17.07-.21l1.66-1.21c.15-.11.07-.35-.11-.35h-2.05c-.08,0-.16-.05-.18-.13l-.63-1.96Z"/><path class="cls-2" d="M18.32.13c.06-.18.31-.18.36,0l.63,1.96c.03.08.1.13.18.13h2.05c.18,0,.26.24.11.35l-1.66,1.21c-.07.05-.09.14-.07.21l.63,1.96c.06.18-.14.32-.29.21l-1.66-1.21c-.07-.05-.16-.05-.22,0l-1.66,1.21c-.15.11-.35-.04-.29-.21l.63-1.96c.03-.08,0-.17-.07-.21l-1.66-1.21c-.15-.11-.07-.35.11-.35h2.05c.08,0,.16-.05.18-.13l.63-1.96Z"/></g></g></svg>